<?xml version="1.0" encoding="utf-8" standalone="no"?>
<!DOCTYPE svg PUBLIC "-//W3C//DTD SVG 1.1//EN"
  "http://www.w3.org/Graphics/SVG/1.1/DTD/svg11.dtd">
<svg xmlns:xlink="http://www.w3.org/1999/xlink" width="279.116335pt" height="195.149187pt" viewBox="0 0 279.116335 195.149187" xmlns="http://www.w3.org/2000/svg" version="1.1">
 <metadata>
  <rdf:RDF xmlns:dc="http://purl.org/dc/elements/1.1/" xmlns:cc="http://creativecommons.org/ns#" xmlns:rdf="http://www.w3.org/1999/02/22-rdf-syntax-ns#">
   <cc:Work>
    <dc:type rdf:resource="http://purl.org/dc/dcmitype/StillImage"/>
    <dc:date>2026-05-02T00:30:37.204415</dc:date>
    <dc:format>image/svg+xml</dc:format>
    <dc:creator>
     <cc:Agent>
      <dc:title>Matplotlib v3.10.6, https://matplotlib.org/</dc:title>
     </cc:Agent>
    </dc:creator>
   </cc:Work>
  </rdf:RDF>
 </metadata>
 <defs>
  <style type="text/css">*{stroke-linejoin: round; stroke-linecap: butt}</style>
 </defs>
 <g id="figure_1">
  <g id="patch_1">
   <path d="M 0 195.149187 
L 279.116335 195.149187 
L 279.116335 0 
L 0 0 
z
" style="fill: #ffffff"/>
  </g>
  <g id="axes_1">
   <g id="patch_2">
    <path d="M 37.074688 162.432 
L 271.434688 162.432 
L 271.434688 7.2 
L 37.074688 7.2 
z
" style="fill: #ffffff"/>
   </g>
   <g id="FillBetweenPolyCollection_1">
    <defs>
     <path id="m970adce4de" d="M 47.727415 -162.669276 
L 47.727415 -161.991005 
L 58.940812 -160.618269 
L 70.154209 -160.129423 
L 81.367606 -159.895777 
L 92.581003 -159.723314 
L 103.7944 -159.561222 
L 115.007798 -159.536008 
L 126.221195 -159.462848 
L 137.434592 -159.468862 
L 148.647989 -159.483039 
L 159.861386 -159.472808 
L 171.074783 -159.469982 
L 182.28818 -159.410206 
L 193.501577 -159.395923 
L 204.714975 -159.409961 
L 215.928372 -159.402032 
L 227.141769 -159.408812 
L 238.355166 -159.39181 
L 249.568563 -159.384071 
L 260.78196 -159.371442 
L 260.78196 -159.572788 
L 260.78196 -159.572788 
L 249.568563 -159.572259 
L 238.355166 -159.583182 
L 227.141769 -159.606313 
L 215.928372 -159.612257 
L 204.714975 -159.628589 
L 193.501577 -159.647789 
L 182.28818 -159.684 
L 171.074783 -159.701611 
L 159.861386 -159.719911 
L 148.647989 -159.736733 
L 137.434592 -159.767432 
L 126.221195 -159.84031 
L 115.007798 -159.893388 
L 103.7944 -159.968629 
L 92.581003 -160.114806 
L 81.367606 -160.39468 
L 70.154209 -160.637087 
L 58.940812 -161.075036 
L 47.727415 -162.669276 
z
"/>
    </defs>
    <g clip-path="url(#p24ab43e023)">
     <use xlink:href="#m970adce4de" x="0" y="195.149187" style="fill: #6b7280; fill-opacity: 0.1"/>
    </g>
   </g>
   <g id="FillBetweenPolyCollection_2">
    <defs>
     <path id="m63b5f6fee9" d="M 47.727415 -162.669276 
L 47.727415 -161.991005 
L 58.940812 -160.618269 
L 70.154209 -160.129423 
L 81.367606 -145.099042 
L 92.581003 -64.625451 
L 103.7944 -52.5494 
L 115.007798 -50.91199 
L 126.221195 -50.324619 
L 137.434592 -50.076998 
L 148.647989 -49.915057 
L 159.861386 -49.760132 
L 171.074783 -49.625017 
L 182.28818 -49.533421 
L 193.501577 -49.47198 
L 204.714975 -49.433663 
L 215.928372 -49.394081 
L 227.141769 -49.384062 
L 238.355166 -49.360595 
L 249.568563 -49.369211 
L 260.78196 -49.36165 
L 260.78196 -51.028419 
L 260.78196 -51.028419 
L 249.568563 -51.039046 
L 238.355166 -51.05338 
L 227.141769 -51.095172 
L 215.928372 -51.113878 
L 204.714975 -51.131239 
L 193.501577 -51.168201 
L 182.28818 -51.212066 
L 171.074783 -51.318444 
L 159.861386 -51.390111 
L 148.647989 -51.478298 
L 137.434592 -51.679504 
L 126.221195 -52.019178 
L 115.007798 -52.597482 
L 103.7944 -54.371703 
L 92.581003 -68.103277 
L 81.367606 -148.121077 
L 70.154209 -160.637087 
L 58.940812 -161.075036 
L 47.727415 -162.669276 
z
"/>
    </defs>
    <g clip-path="url(#p24ab43e023)">
     <use xlink:href="#m63b5f6fee9" x="0" y="195.149187" style="fill: #dc2626; fill-opacity: 0.1"/>
    </g>
   </g>
   <g id="FillBetweenPolyCollection_3">
    <defs>
     <path id="m8f3d493baa" d="M 47.727415 -162.652631 
L 47.727415 -162.0898 
L 58.940812 -161.108012 
L 70.154209 -160.745891 
L 81.367606 -160.313264 
L 92.581003 -160.17669 
L 103.7944 -159.955959 
L 115.007798 -159.967272 
L 126.221195 -159.863331 
L 137.434592 -159.954137 
L 148.647989 -159.977958 
L 159.861386 -160.003227 
L 171.074783 -160.086696 
L 182.28818 -159.786507 
L 193.501577 -159.844324 
L 204.714975 -159.82259 
L 215.928372 -159.863695 
L 227.141769 -159.783434 
L 238.355166 -159.734095 
L 249.568563 -159.67206 
L 260.78196 -159.757366 
L 260.78196 -160.1283 
L 260.78196 -160.1283 
L 249.568563 -160.047419 
L 238.355166 -160.082422 
L 227.141769 -160.118998 
L 215.928372 -160.116036 
L 204.714975 -160.159241 
L 193.501577 -160.069076 
L 182.28818 -160.271001 
L 171.074783 -160.265333 
L 159.861386 -160.63599 
L 148.647989 -160.397328 
L 137.434592 -160.085715 
L 126.221195 -160.337683 
L 115.007798 -160.336903 
L 103.7944 -160.431329 
L 92.581003 -160.750347 
L 81.367606 -161.051769 
L 70.154209 -161.288921 
L 58.940812 -161.594282 
L 47.727415 -162.652631 
z
"/>
    </defs>
    <g clip-path="url(#p24ab43e023)">
     <use xlink:href="#m8f3d493baa" x="0" y="195.149187" style="fill: #9ca3af; fill-opacity: 0.1"/>
    </g>
   </g>
   <g id="FillBetweenPolyCollection_4">
    <defs>
     <path id="mdfb4f93700" d="M 47.727415 -93.52283 
L 47.727415 -92.19869 
L 58.940812 -80.494952 
L 70.154209 -73.261617 
L 81.367606 -68.477788 
L 92.581003 -65.00994 
L 103.7944 -62.42141 
L 115.007798 -60.518098 
L 126.221195 -58.931878 
L 137.434592 -57.68953 
L 148.647989 -56.793762 
L 159.861386 -56.018089 
L 171.074783 -55.364503 
L 182.28818 -54.809747 
L 193.501577 -54.318487 
L 204.714975 -53.897491 
L 215.928372 -53.558089 
L 227.141769 -53.251225 
L 238.355166 -52.933821 
L 249.568563 -52.693413 
L 260.78196 -52.483258 
L 260.78196 -54.040472 
L 260.78196 -54.040472 
L 249.568563 -54.258362 
L 238.355166 -54.455717 
L 227.141769 -54.718678 
L 215.928372 -55.025029 
L 204.714975 -55.37715 
L 193.501577 -55.806009 
L 182.28818 -56.272057 
L 171.074783 -56.854291 
L 159.861386 -57.458723 
L 148.647989 -58.219526 
L 137.434592 -59.150307 
L 126.221195 -60.301527 
L 115.007798 -61.733188 
L 103.7944 -63.62631 
L 92.581003 -66.192379 
L 81.367606 -69.590192 
L 70.154209 -74.506675 
L 58.940812 -81.633697 
L 47.727415 -93.52283 
z
"/>
    </defs>
    <g clip-path="url(#p24ab43e023)">
     <use xlink:href="#mdfb4f93700" x="0" y="195.149187" style="fill: #d55e00; fill-opacity: 0.1"/>
    </g>
   </g>
   <g id="FillBetweenPolyCollection_5">
    <defs>
     <path id="mb5d8d4ca93" d="M 47.727415 -75.501585 
L 47.727415 -74.28784 
L 58.940812 -62.222214 
L 70.154209 -57.090306 
L 81.367606 -54.466178 
L 92.581003 -52.990977 
L 103.7944 -51.970753 
L 115.007798 -51.360462 
L 126.221195 -50.878771 
L 137.434592 -50.601119 
L 148.647989 -50.431062 
L 159.861386 -50.256977 
L 171.074783 -50.085686 
L 182.28818 -49.990797 
L 193.501577 -49.859308 
L 204.714975 -49.782291 
L 215.928372 -49.736103 
L 227.141769 -49.709464 
L 238.355166 -49.652621 
L 249.568563 -49.613595 
L 260.78196 -49.636832 
L 260.78196 -51.321241 
L 260.78196 -51.321241 
L 249.568563 -51.337347 
L 238.355166 -51.306194 
L 227.141769 -51.3599 
L 215.928372 -51.398256 
L 204.714975 -51.461233 
L 193.501577 -51.534488 
L 182.28818 -51.622991 
L 171.074783 -51.747436 
L 159.861386 -51.832694 
L 148.647989 -51.961318 
L 137.434592 -52.140846 
L 126.221195 -52.423522 
L 115.007798 -52.796202 
L 103.7944 -53.373069 
L 92.581003 -54.258834 
L 81.367606 -55.647244 
L 70.154209 -58.242357 
L 58.940812 -63.342582 
L 47.727415 -75.501585 
z
"/>
    </defs>
    <g clip-path="url(#p24ab43e023)">
     <use xlink:href="#mb5d8d4ca93" x="0" y="195.149187" style="fill: #e69f00; fill-opacity: 0.1"/>
    </g>
   </g>
   <g id="FillBetweenPolyCollection_6">
    <defs>
     <path id="me25cc1bbb9" d="M 47.727415 -125.389492 
L 47.727415 -123.400722 
L 58.940812 -120.806319 
L 70.154209 -121.821188 
L 81.367606 -121.352857 
L 92.581003 -122.567365 
L 103.7944 -122.90911 
L 115.007798 -121.595831 
L 126.221195 -122.843039 
L 137.434592 -120.751004 
L 148.647989 -123.319719 
L 159.861386 -120.170453 
L 171.074783 -123.166959 
L 182.28818 -122.079707 
L 193.501577 -120.859491 
L 204.714975 -123.263978 
L 215.928372 -123.312129 
L 227.141769 -120.272475 
L 238.355166 -120.640548 
L 249.568563 -121.557275 
L 260.78196 -119.962935 
L 260.78196 -126.978714 
L 260.78196 -126.978714 
L 249.568563 -124.875863 
L 238.355166 -125.397553 
L 227.141769 -128.359994 
L 215.928372 -127.394275 
L 204.714975 -125.972362 
L 193.501577 -123.669557 
L 182.28818 -128.614424 
L 171.074783 -128.126694 
L 159.861386 -124.909721 
L 148.647989 -124.57073 
L 137.434592 -125.338794 
L 126.221195 -128.884202 
L 115.007798 -124.822195 
L 103.7944 -126.210719 
L 92.581003 -126.23565 
L 81.367606 -128.695887 
L 70.154209 -126.662218 
L 58.940812 -126.900147 
L 47.727415 -125.389492 
z
"/>
    </defs>
    <g clip-path="url(#p24ab43e023)">
     <use xlink:href="#me25cc1bbb9" x="0" y="195.149187" style="fill: #8b5cf6; fill-opacity: 0.1"/>
    </g>
   </g>
   <g id="FillBetweenPolyCollection_7">
    <defs>
     <path id="m3e6337c0d6" d="M 47.727415 -162.669276 
L 47.727415 -161.991005 
L 58.940812 -160.618269 
L 70.154209 -160.129423 
L 81.367606 -132.291236 
L 92.581003 -53.478252 
L 103.7944 -50.356943 
L 115.007798 -50.072536 
L 126.221195 -49.868928 
L 137.434592 -49.780196 
L 148.647989 -49.708372 
L 159.861386 -49.607853 
L 171.074783 -49.514217 
L 182.28818 -49.462018 
L 193.501577 -49.42689 
L 204.714975 -49.393032 
L 215.928372 -49.368863 
L 227.141769 -49.365053 
L 238.355166 -49.340305 
L 249.568563 -49.349338 
L 260.78196 -49.343261 
L 260.78196 -50.9775 
L 260.78196 -50.9775 
L 249.568563 -50.981283 
L 238.355166 -50.988229 
L 227.141769 -51.025572 
L 215.928372 -51.037668 
L 204.714975 -51.0506 
L 193.501577 -51.072517 
L 182.28818 -51.101275 
L 171.074783 -51.184845 
L 159.861386 -51.223379 
L 148.647989 -51.278041 
L 137.434592 -51.367139 
L 126.221195 -51.506483 
L 115.007798 -51.701381 
L 103.7944 -51.952658 
L 92.581003 -56.471382 
L 81.367606 -136.551255 
L 70.154209 -160.637087 
L 58.940812 -161.075036 
L 47.727415 -162.669276 
z
"/>
    </defs>
    <g clip-path="url(#p24ab43e023)">
     <use xlink:href="#m3e6337c0d6" x="0" y="195.149187" style="fill: #56b4e9; fill-opacity: 0.1"/>
    </g>
   </g>
   <g id="FillBetweenPolyCollection_8">
    <defs>
     <path id="m4c7d7d9836" d="M 47.727415 -162.669276 
L 47.727415 -161.991005 
L 58.940812 -160.618269 
L 70.154209 -160.129423 
L 81.367606 -132.291236 
L 92.581003 -53.478252 
L 103.7944 -50.356943 
L 115.007798 -50.072536 
L 126.221195 -49.868928 
L 137.434592 -49.780196 
L 148.647989 -49.708372 
L 159.861386 -49.607853 
L 171.074783 -49.514217 
L 182.28818 -49.462018 
L 193.501577 -49.42689 
L 204.714975 -49.393032 
L 215.928372 -49.368863 
L 227.141769 -49.365053 
L 238.355166 -49.340305 
L 249.568563 -49.349338 
L 260.78196 -49.343261 
L 260.78196 -50.9775 
L 260.78196 -50.9775 
L 249.568563 -50.981283 
L 238.355166 -50.988229 
L 227.141769 -51.025572 
L 215.928372 -51.037668 
L 204.714975 -51.0506 
L 193.501577 -51.072517 
L 182.28818 -51.101275 
L 171.074783 -51.184845 
L 159.861386 -51.223379 
L 148.647989 -51.278041 
L 137.434592 -51.367139 
L 126.221195 -51.506483 
L 115.007798 -51.701381 
L 103.7944 -51.952658 
L 92.581003 -56.471382 
L 81.367606 -136.551255 
L 70.154209 -160.637087 
L 58.940812 -161.075036 
L 47.727415 -162.669276 
z
"/>
    </defs>
    <g clip-path="url(#p24ab43e023)">
     <use xlink:href="#m4c7d7d9836" x="0" y="195.149187" style="fill: #0072b2; fill-opacity: 0.1"/>
    </g>
   </g>
   <g id="FillBetweenPolyCollection_9">
    <defs>
     <path id="m481e32140f" d="M 47.727415 -57.240253 
L 47.727415 -56.082385 
L 58.940812 -52.035652 
L 70.154209 -51.032598 
L 81.367606 -50.461697 
L 92.581003 -50.127069 
L 103.7944 -49.88529 
L 115.007798 -49.765541 
L 126.221195 -49.635642 
L 137.434592 -49.587469 
L 148.647989 -49.542685 
L 159.861386 -49.473949 
L 171.074783 -49.40824 
L 182.28818 -49.375076 
L 193.501577 -49.34377 
L 204.714975 -49.318892 
L 215.928372 -49.305866 
L 227.141769 -49.306157 
L 238.355166 -49.282109 
L 249.568563 -49.28885 
L 260.78196 -49.283673 
L 260.78196 -50.918809 
L 260.78196 -50.918809 
L 249.568563 -50.921996 
L 238.355166 -50.9338 
L 227.141769 -50.960948 
L 215.928372 -50.973248 
L 204.714975 -50.983107 
L 193.501577 -50.997785 
L 182.28818 -51.017055 
L 171.074783 -51.090999 
L 159.861386 -51.112348 
L 148.647989 -51.146509 
L 137.434592 -51.204791 
L 126.221195 -51.270162 
L 115.007798 -51.36611 
L 103.7944 -51.456694 
L 92.581003 -51.571585 
L 81.367606 -51.791527 
L 70.154209 -52.286863 
L 58.940812 -53.243015 
L 47.727415 -57.240253 
z
"/>
    </defs>
    <g clip-path="url(#p24ab43e023)">
     <use xlink:href="#m481e32140f" x="0" y="195.149187" style="fill: #009e73; fill-opacity: 0.1"/>
    </g>
   </g>
   <g id="matplotlib.axis_1">
    <g id="xtick_1">
     <g id="line2d_1">
      <defs>
       <path id="m6a15f6e67e" d="M 0 0 
L 0 3.5 
" style="stroke: #000000; stroke-width: 0.8"/>
      </defs>
      <g>
       <use xlink:href="#m6a15f6e67e" x="73.892008" y="162.432" style="stroke: #000000; stroke-width: 0.8"/>
      </g>
     </g>
     <g id="text_1">
      <text style="font-size: 7px; font-family: 'DejaVu Sans', 'Bitstream Vera Sans', 'Computer Modern Sans Serif', 'Lucida Grande', 'Verdana', 'Geneva', 'Lucid', 'Arial', 'Helvetica', 'Avant Garde', sans-serif; text-anchor: middle" x="73.892008" y="174.750906" transform="rotate(-0 73.892008 174.750906)">10000</text>
     </g>
    </g>
    <g id="xtick_2">
     <g id="line2d_2">
      <g>
       <use xlink:href="#m6a15f6e67e" x="111.269999" y="162.432" style="stroke: #000000; stroke-width: 0.8"/>
      </g>
     </g>
     <g id="text_2">
      <text style="font-size: 7px; font-family: 'DejaVu Sans', 'Bitstream Vera Sans', 'Computer Modern Sans Serif', 'Lucida Grande', 'Verdana', 'Geneva', 'Lucid', 'Arial', 'Helvetica', 'Avant Garde', sans-serif; text-anchor: middle" x="111.269999" y="174.750906" transform="rotate(-0 111.269999 174.750906)">20000</text>
     </g>
    </g>
    <g id="xtick_3">
     <g id="line2d_3">
      <g>
       <use xlink:href="#m6a15f6e67e" x="148.647989" y="162.432" style="stroke: #000000; stroke-width: 0.8"/>
      </g>
     </g>
     <g id="text_3">
      <text style="font-size: 7px; font-family: 'DejaVu Sans', 'Bitstream Vera Sans', 'Computer Modern Sans Serif', 'Lucida Grande', 'Verdana', 'Geneva', 'Lucid', 'Arial', 'Helvetica', 'Avant Garde', sans-serif; text-anchor: middle" x="148.647989" y="174.750906" transform="rotate(-0 148.647989 174.750906)">30000</text>
     </g>
    </g>
    <g id="xtick_4">
     <g id="line2d_4">
      <g>
       <use xlink:href="#m6a15f6e67e" x="186.025979" y="162.432" style="stroke: #000000; stroke-width: 0.8"/>
      </g>
     </g>
     <g id="text_4">
      <text style="font-size: 7px; font-family: 'DejaVu Sans', 'Bitstream Vera Sans', 'Computer Modern Sans Serif', 'Lucida Grande', 'Verdana', 'Geneva', 'Lucid', 'Arial', 'Helvetica', 'Avant Garde', sans-serif; text-anchor: middle" x="186.025979" y="174.750906" transform="rotate(-0 186.025979 174.750906)">40000</text>
     </g>
    </g>
    <g id="xtick_5">
     <g id="line2d_5">
      <g>
       <use xlink:href="#m6a15f6e67e" x="223.40397" y="162.432" style="stroke: #000000; stroke-width: 0.8"/>
      </g>
     </g>
     <g id="text_5">
      <text style="font-size: 7px; font-family: 'DejaVu Sans', 'Bitstream Vera Sans', 'Computer Modern Sans Serif', 'Lucida Grande', 'Verdana', 'Geneva', 'Lucid', 'Arial', 'Helvetica', 'Avant Garde', sans-serif; text-anchor: middle" x="223.40397" y="174.750906" transform="rotate(-0 223.40397 174.750906)">50000</text>
     </g>
    </g>
    <g id="xtick_6">
     <g id="line2d_6">
      <g>
       <use xlink:href="#m6a15f6e67e" x="260.78196" y="162.432" style="stroke: #000000; stroke-width: 0.8"/>
      </g>
     </g>
     <g id="text_6">
      <text style="font-size: 7px; font-family: 'DejaVu Sans', 'Bitstream Vera Sans', 'Computer Modern Sans Serif', 'Lucida Grande', 'Verdana', 'Geneva', 'Lucid', 'Arial', 'Helvetica', 'Avant Garde', sans-serif; text-anchor: middle" x="260.78196" y="174.750906" transform="rotate(-0 260.78196 174.750906)">60000</text>
     </g>
    </g>
    <g id="text_7">
     <text style="font-size: 8px; font-family: 'DejaVu Sans', 'Bitstream Vera Sans', 'Computer Modern Sans Serif', 'Lucida Grande', 'Verdana', 'Geneva', 'Lucid', 'Arial', 'Helvetica', 'Avant Garde', sans-serif; text-anchor: middle" x="154.254688" y="186.285437" transform="rotate(-0 154.254688 186.285437)">Online steps</text>
    </g>
   </g>
   <g id="matplotlib.axis_2">
    <g id="ytick_1">
     <g id="line2d_7">
      <path d="M 37.074688 162.432 
L 271.434688 162.432 
" clip-path="url(#p24ab43e023)" style="fill: none; stroke: #e5e7eb; stroke-width: 0.6; stroke-linecap: square"/>
     </g>
     <g id="line2d_8">
      <defs>
       <path id="m582f310e1a" d="M 0 0 
L -3.5 0 
" style="stroke: #000000; stroke-width: 0.8"/>
      </defs>
      <g>
       <use xlink:href="#m582f310e1a" x="37.074688" y="162.432" style="stroke: #000000; stroke-width: 0.8"/>
      </g>
     </g>
     <g id="text_8">
      <text style="font-size: 7px; font-family: 'DejaVu Sans', 'Bitstream Vera Sans', 'Computer Modern Sans Serif', 'Lucida Grande', 'Verdana', 'Geneva', 'Lucid', 'Arial', 'Helvetica', 'Avant Garde', sans-serif; text-anchor: end" x="30.074688" y="165.091453" transform="rotate(-0 30.074688 165.091453)">0.0</text>
     </g>
    </g>
    <g id="ytick_2">
     <g id="line2d_9">
      <path d="M 37.074688 144.169412 
L 271.434688 144.169412 
" clip-path="url(#p24ab43e023)" style="fill: none; stroke: #e5e7eb; stroke-width: 0.6; stroke-linecap: square"/>
     </g>
     <g id="line2d_10">
      <g>
       <use xlink:href="#m582f310e1a" x="37.074688" y="144.169412" style="stroke: #000000; stroke-width: 0.8"/>
      </g>
     </g>
     <g id="text_9">
      <text style="font-size: 7px; font-family: 'DejaVu Sans', 'Bitstream Vera Sans', 'Computer Modern Sans Serif', 'Lucida Grande', 'Verdana', 'Geneva', 'Lucid', 'Arial', 'Helvetica', 'Avant Garde', sans-serif; text-anchor: end" x="30.074688" y="146.828865" transform="rotate(-0 30.074688 146.828865)">0.1</text>
     </g>
    </g>
    <g id="ytick_3">
     <g id="line2d_11">
      <path d="M 37.074688 125.906824 
L 271.434688 125.906824 
" clip-path="url(#p24ab43e023)" style="fill: none; stroke: #e5e7eb; stroke-width: 0.6; stroke-linecap: square"/>
     </g>
     <g id="line2d_12">
      <g>
       <use xlink:href="#m582f310e1a" x="37.074688" y="125.906824" style="stroke: #000000; stroke-width: 0.8"/>
      </g>
     </g>
     <g id="text_10">
      <text style="font-size: 7px; font-family: 'DejaVu Sans', 'Bitstream Vera Sans', 'Computer Modern Sans Serif', 'Lucida Grande', 'Verdana', 'Geneva', 'Lucid', 'Arial', 'Helvetica', 'Avant Garde', sans-serif; text-anchor: end" x="30.074688" y="128.566277" transform="rotate(-0 30.074688 128.566277)">0.2</text>
     </g>
    </g>
    <g id="ytick_4">
     <g id="line2d_13">
      <path d="M 37.074688 107.644235 
L 271.434688 107.644235 
" clip-path="url(#p24ab43e023)" style="fill: none; stroke: #e5e7eb; stroke-width: 0.6; stroke-linecap: square"/>
     </g>
     <g id="line2d_14">
      <g>
       <use xlink:href="#m582f310e1a" x="37.074688" y="107.644235" style="stroke: #000000; stroke-width: 0.8"/>
      </g>
     </g>
     <g id="text_11">
      <text style="font-size: 7px; font-family: 'DejaVu Sans', 'Bitstream Vera Sans', 'Computer Modern Sans Serif', 'Lucida Grande', 'Verdana', 'Geneva', 'Lucid', 'Arial', 'Helvetica', 'Avant Garde', sans-serif; text-anchor: end" x="30.074688" y="110.303688" transform="rotate(-0 30.074688 110.303688)">0.3</text>
     </g>
    </g>
    <g id="ytick_5">
     <g id="line2d_15">
      <path d="M 37.074688 89.381647 
L 271.434688 89.381647 
" clip-path="url(#p24ab43e023)" style="fill: none; stroke: #e5e7eb; stroke-width: 0.6; stroke-linecap: square"/>
     </g>
     <g id="line2d_16">
      <g>
       <use xlink:href="#m582f310e1a" x="37.074688" y="89.381647" style="stroke: #000000; stroke-width: 0.8"/>
      </g>
     </g>
     <g id="text_12">
      <text style="font-size: 7px; font-family: 'DejaVu Sans', 'Bitstream Vera Sans', 'Computer Modern Sans Serif', 'Lucida Grande', 'Verdana', 'Geneva', 'Lucid', 'Arial', 'Helvetica', 'Avant Garde', sans-serif; text-anchor: end" x="30.074688" y="92.0411" transform="rotate(-0 30.074688 92.0411)">0.4</text>
     </g>
    </g>
    <g id="ytick_6">
     <g id="line2d_17">
      <path d="M 37.074688 71.119059 
L 271.434688 71.119059 
" clip-path="url(#p24ab43e023)" style="fill: none; stroke: #e5e7eb; stroke-width: 0.6; stroke-linecap: square"/>
     </g>
     <g id="line2d_18">
      <g>
       <use xlink:href="#m582f310e1a" x="37.074688" y="71.119059" style="stroke: #000000; stroke-width: 0.8"/>
      </g>
     </g>
     <g id="text_13">
      <text style="font-size: 7px; font-family: 'DejaVu Sans', 'Bitstream Vera Sans', 'Computer Modern Sans Serif', 'Lucida Grande', 'Verdana', 'Geneva', 'Lucid', 'Arial', 'Helvetica', 'Avant Garde', sans-serif; text-anchor: end" x="30.074688" y="73.778512" transform="rotate(-0 30.074688 73.778512)">0.5</text>
     </g>
    </g>
    <g id="ytick_7">
     <g id="line2d_19">
      <path d="M 37.074688 52.856471 
L 271.434688 52.856471 
" clip-path="url(#p24ab43e023)" style="fill: none; stroke: #e5e7eb; stroke-width: 0.6; stroke-linecap: square"/>
     </g>
     <g id="line2d_20">
      <g>
       <use xlink:href="#m582f310e1a" x="37.074688" y="52.856471" style="stroke: #000000; stroke-width: 0.8"/>
      </g>
     </g>
     <g id="text_14">
      <text style="font-size: 7px; font-family: 'DejaVu Sans', 'Bitstream Vera Sans', 'Computer Modern Sans Serif', 'Lucida Grande', 'Verdana', 'Geneva', 'Lucid', 'Arial', 'Helvetica', 'Avant Garde', sans-serif; text-anchor: end" x="30.074688" y="55.515924" transform="rotate(-0 30.074688 55.515924)">0.6</text>
     </g>
    </g>
    <g id="ytick_8">
     <g id="line2d_21">
      <path d="M 37.074688 34.593882 
L 271.434688 34.593882 
" clip-path="url(#p24ab43e023)" style="fill: none; stroke: #e5e7eb; stroke-width: 0.6; stroke-linecap: square"/>
     </g>
     <g id="line2d_22">
      <g>
       <use xlink:href="#m582f310e1a" x="37.074688" y="34.593882" style="stroke: #000000; stroke-width: 0.8"/>
      </g>
     </g>
     <g id="text_15">
      <text style="font-size: 7px; font-family: 'DejaVu Sans', 'Bitstream Vera Sans', 'Computer Modern Sans Serif', 'Lucida Grande', 'Verdana', 'Geneva', 'Lucid', 'Arial', 'Helvetica', 'Avant Garde', sans-serif; text-anchor: end" x="30.074688" y="37.253335" transform="rotate(-0 30.074688 37.253335)">0.7</text>
     </g>
    </g>
    <g id="ytick_9">
     <g id="line2d_23">
      <path d="M 37.074688 16.331294 
L 271.434688 16.331294 
" clip-path="url(#p24ab43e023)" style="fill: none; stroke: #e5e7eb; stroke-width: 0.6; stroke-linecap: square"/>
     </g>
     <g id="line2d_24">
      <g>
       <use xlink:href="#m582f310e1a" x="37.074688" y="16.331294" style="stroke: #000000; stroke-width: 0.8"/>
      </g>
     </g>
     <g id="text_16">
      <text style="font-size: 7px; font-family: 'DejaVu Sans', 'Bitstream Vera Sans', 'Computer Modern Sans Serif', 'Lucida Grande', 'Verdana', 'Geneva', 'Lucid', 'Arial', 'Helvetica', 'Avant Garde', sans-serif; text-anchor: end" x="30.074688" y="18.990747" transform="rotate(-0 30.074688 18.990747)">0.8</text>
     </g>
    </g>
    <g id="text_17">
     <text style="font-size: 8px; font-family: 'DejaVu Sans', 'Bitstream Vera Sans', 'Computer Modern Sans Serif', 'Lucida Grande', 'Verdana', 'Geneva', 'Lucid', 'Arial', 'Helvetica', 'Avant Garde', sans-serif; text-anchor: middle" x="13.27875" y="84.816" transform="rotate(-90 13.27875 84.816)">Held-out NLL</text>
    </g>
   </g>
   <g id="line2d_25">
    <path d="M 47.727415 32.819047 
L 58.940812 34.302535 
L 70.154209 34.765933 
L 81.367606 35.003959 
L 92.581003 35.230127 
L 103.7944 35.384262 
L 115.007798 35.434489 
L 126.221195 35.497608 
L 137.434592 35.53104 
L 148.647989 35.539302 
L 159.861386 35.552828 
L 171.074783 35.563391 
L 182.28818 35.602085 
L 193.501577 35.627331 
L 204.714975 35.629912 
L 215.928372 35.642043 
L 227.141769 35.641625 
L 238.355166 35.661691 
L 249.568563 35.671023 
L 260.78196 35.677073 
" clip-path="url(#p24ab43e023)" style="fill: none; stroke: #6b7280; stroke-width: 1.15; stroke-linecap: square"/>
   </g>
   <g id="line2d_26">
    <path d="M 47.727415 32.819047 
L 58.940812 34.302535 
L 70.154209 34.765933 
L 81.367606 48.539128 
L 92.581003 128.784824 
L 103.7944 141.688636 
L 115.007798 143.394452 
L 126.221195 143.977289 
L 137.434592 144.270937 
L 148.647989 144.45251 
L 159.861386 144.574066 
L 171.074783 144.677457 
L 182.28818 144.776444 
L 193.501577 144.829097 
L 204.714975 144.866736 
L 215.928372 144.895208 
L 227.141769 144.909571 
L 238.355166 144.9422 
L 249.568563 144.945059 
L 260.78196 144.954153 
" clip-path="url(#p24ab43e023)" style="fill: none; stroke: #dc2626; stroke-width: 1.15; stroke-linecap: square"/>
   </g>
   <g id="line2d_27">
    <path d="M 47.727415 32.777972 
L 58.940812 33.79804 
L 70.154209 34.131781 
L 81.367606 34.466671 
L 92.581003 34.685669 
L 103.7944 34.955543 
L 115.007798 34.9971 
L 126.221195 35.048681 
L 137.434592 35.129261 
L 148.647989 34.961545 
L 159.861386 34.829579 
L 171.074783 34.973173 
L 182.28818 35.120434 
L 193.501577 35.192488 
L 204.714975 35.158272 
L 215.928372 35.159322 
L 227.141769 35.197972 
L 238.355166 35.240929 
L 249.568563 35.289448 
L 260.78196 35.206355 
" clip-path="url(#p24ab43e023)" style="fill: none; stroke: #9ca3af; stroke-width: 1.15; stroke-linecap: square"/>
   </g>
   <g id="line2d_28">
    <path d="M 47.727415 102.288427 
L 58.940812 114.084863 
L 70.154209 121.265042 
L 81.367606 126.115198 
L 92.581003 129.548028 
L 103.7944 132.125328 
L 115.007798 134.023544 
L 126.221195 135.532485 
L 137.434592 136.729269 
L 148.647989 137.642543 
L 159.861386 138.410781 
L 171.074783 139.03979 
L 182.28818 139.608286 
L 193.501577 140.08694 
L 204.714975 140.511867 
L 215.928372 140.857628 
L 227.141769 141.164236 
L 238.355166 141.454419 
L 249.568563 141.6733 
L 260.78196 141.887322 
" clip-path="url(#p24ab43e023)" style="fill: none; stroke: #d55e00; stroke-width: 1.15; stroke-linecap: square"/>
   </g>
   <g id="line2d_29">
    <path d="M 47.727415 120.254475 
L 58.940812 132.36679 
L 70.154209 137.482856 
L 81.367606 140.092477 
L 92.581003 141.524282 
L 103.7944 142.477277 
L 115.007798 143.070855 
L 126.221195 143.498041 
L 137.434592 143.778205 
L 148.647989 143.952997 
L 159.861386 144.104352 
L 171.074783 144.232627 
L 182.28818 144.342293 
L 193.501577 144.452289 
L 204.714975 144.527426 
L 215.928372 144.582008 
L 227.141769 144.614505 
L 238.355166 144.66978 
L 249.568563 144.673716 
L 260.78196 144.670151 
" clip-path="url(#p24ab43e023)" style="fill: none; stroke: #e69f00; stroke-width: 1.15; stroke-linecap: square"/>
   </g>
   <g id="line2d_30">
    <path d="M 47.727415 70.754081 
L 58.940812 71.295955 
L 70.154209 70.907484 
L 81.367606 70.124816 
L 92.581003 70.74768 
L 103.7944 70.589273 
L 115.007798 71.940175 
L 126.221195 69.285567 
L 137.434592 72.104289 
L 148.647989 71.203963 
L 159.861386 72.609101 
L 171.074783 69.502361 
L 182.28818 69.802122 
L 193.501577 72.884663 
L 204.714975 70.531018 
L 215.928372 69.795985 
L 227.141769 70.832953 
L 238.355166 72.130137 
L 249.568563 71.932619 
L 260.78196 71.678363 
" clip-path="url(#p24ab43e023)" style="fill: none; stroke: #8b5cf6; stroke-width: 1.15; stroke-linecap: square"/>
   </g>
   <g id="line2d_31">
    <path d="M 47.727415 32.819047 
L 58.940812 34.302535 
L 70.154209 34.765933 
L 81.367606 60.727942 
L 92.581003 140.17437 
L 103.7944 143.994387 
L 115.007798 144.262229 
L 126.221195 144.461482 
L 137.434592 144.57552 
L 148.647989 144.655981 
L 159.861386 144.733571 
L 171.074783 144.799657 
L 182.28818 144.867541 
L 193.501577 144.899484 
L 204.714975 144.927371 
L 215.928372 144.945922 
L 227.141769 144.953875 
L 238.355166 144.984921 
L 249.568563 144.983877 
L 260.78196 144.988807 
" clip-path="url(#p24ab43e023)" style="fill: none; stroke: #56b4e9; stroke-width: 1.15; stroke-linecap: square"/>
   </g>
   <g id="line2d_32">
    <path d="M 47.727415 32.819047 
L 58.940812 34.302535 
L 70.154209 34.765933 
L 81.367606 60.727942 
L 92.581003 140.17437 
L 103.7944 143.994387 
L 115.007798 144.262229 
L 126.221195 144.461482 
L 137.434592 144.57552 
L 148.647989 144.655981 
L 159.861386 144.733571 
L 171.074783 144.799657 
L 182.28818 144.867541 
L 193.501577 144.899484 
L 204.714975 144.927371 
L 215.928372 144.945922 
L 227.141769 144.953875 
L 238.355166 144.984921 
L 249.568563 144.983877 
L 260.78196 144.988807 
" clip-path="url(#p24ab43e023)" style="fill: none; stroke: #0072b2; stroke-width: 1.15; stroke-linecap: square"/>
   </g>
   <g id="line2d_33">
    <path d="M 47.727415 138.487869 
L 58.940812 142.509854 
L 70.154209 143.489457 
L 81.367606 144.022576 
L 92.581003 144.29986 
L 103.7944 144.478195 
L 115.007798 144.583362 
L 126.221195 144.696286 
L 137.434592 144.753057 
L 148.647989 144.80459 
L 159.861386 144.856039 
L 171.074783 144.899568 
L 182.28818 144.953122 
L 193.501577 144.97841 
L 204.714975 144.998188 
L 215.928372 145.009631 
L 227.141769 145.015635 
L 238.355166 145.041233 
L 249.568563 145.043764 
L 260.78196 145.047946 
" clip-path="url(#p24ab43e023)" style="fill: none; stroke: #009e73; stroke-width: 1.15; stroke-linecap: square"/>
   </g>
   <g id="line2d_34">
    <path d="M 37.074688 35.845385 
L 271.434688 35.845385 
" clip-path="url(#p24ab43e023)" style="fill: none; stroke-dasharray: 0.7,1.155; stroke-dashoffset: 0; stroke: #111111; stroke-width: 0.7"/>
   </g>
   <g id="line2d_35">
    <path d="M 37.074688 144.52752 
L 271.434688 144.52752 
" clip-path="url(#p24ab43e023)" style="fill: none; stroke-dasharray: 2.59,1.12; stroke-dashoffset: 0; stroke: #374151; stroke-width: 0.7"/>
   </g>
   <g id="patch_3">
    <path d="M 37.074688 162.432 
L 37.074688 7.2 
" style="fill: none; stroke: #000000; stroke-width: 0.8; stroke-linejoin: miter; stroke-linecap: square"/>
   </g>
   <g id="patch_4">
    <path d="M 37.074688 162.432 
L 271.434688 162.432 
" style="fill: none; stroke: #000000; stroke-width: 0.8; stroke-linejoin: miter; stroke-linecap: square"/>
   </g>
   <g id="legend_1">
    <g id="line2d_36">
     <path d="M 106.644844 16.368906 
L 113.644844 16.368906 
L 120.644844 16.368906 
" style="fill: none; stroke: #6b7280; stroke-width: 1.15; stroke-linecap: square"/>
    </g>
    <g id="text_18">
     <text style="font-size: 7px; font-family: 'DejaVu Sans', 'Bitstream Vera Sans', 'Computer Modern Sans Serif', 'Lucida Grande', 'Verdana', 'Geneva', 'Lucid', 'Arial', 'Helvetica', 'Avant Garde', sans-serif; text-anchor: start" x="126.244844" y="18.818906" transform="rotate(-0 126.244844 18.818906)">Repair only</text>
    </g>
    <g id="line2d_37">
     <path d="M 106.644844 26.643594 
L 113.644844 26.643594 
L 120.644844 26.643594 
" style="fill: none; stroke: #dc2626; stroke-width: 1.15; stroke-linecap: square"/>
    </g>
    <g id="text_19">
     <text style="font-size: 7px; font-family: 'DejaVu Sans', 'Bitstream Vera Sans', 'Computer Modern Sans Serif', 'Lucida Grande', 'Verdana', 'Geneva', 'Lucid', 'Arial', 'Helvetica', 'Avant Garde', sans-serif; text-anchor: start" x="126.244844" y="29.093594" transform="rotate(-0 126.244844 29.093594)">Frequency only</text>
    </g>
    <g id="line2d_38">
     <path d="M 106.644844 36.918281 
L 113.644844 36.918281 
L 120.644844 36.918281 
" style="fill: none; stroke: #9ca3af; stroke-width: 1.15; stroke-linecap: square"/>
    </g>
    <g id="text_20">
     <text style="font-size: 7px; font-family: 'DejaVu Sans', 'Bitstream Vera Sans', 'Computer Modern Sans Serif', 'Lucida Grande', 'Verdana', 'Geneva', 'Lucid', 'Arial', 'Helvetica', 'Avant Garde', sans-serif; text-anchor: start" x="126.244844" y="39.368281" transform="rotate(-0 126.244844 39.368281)">Additive logistic</text>
    </g>
    <g id="line2d_39">
     <path d="M 106.644844 47.192969 
L 113.644844 47.192969 
L 120.644844 47.192969 
" style="fill: none; stroke: #d55e00; stroke-width: 1.15; stroke-linecap: square"/>
    </g>
    <g id="text_21">
     <text style="font-size: 7px; font-family: 'DejaVu Sans', 'Bitstream Vera Sans', 'Computer Modern Sans Serif', 'Lucida Grande', 'Verdana', 'Geneva', 'Lucid', 'Arial', 'Helvetica', 'Avant Garde', sans-serif; text-anchor: start" x="126.244844" y="49.642969" transform="rotate(-0 126.244844 49.642969)">Cross-product</text>
    </g>
    <g id="line2d_40">
     <path d="M 106.644844 57.467656 
L 113.644844 57.467656 
L 120.644844 57.467656 
" style="fill: none; stroke: #e69f00; stroke-width: 1.15; stroke-linecap: square"/>
    </g>
    <g id="text_22">
     <text style="font-size: 7px; font-family: 'DejaVu Sans', 'Bitstream Vera Sans', 'Computer Modern Sans Serif', 'Lucida Grande', 'Verdana', 'Geneva', 'Lucid', 'Arial', 'Helvetica', 'Avant Garde', sans-serif; text-anchor: start" x="126.244844" y="59.917656" transform="rotate(-0 126.244844 59.917656)">Crossed logistic</text>
    </g>
    <g id="line2d_41">
     <path d="M 106.644844 67.742344 
L 113.644844 67.742344 
L 120.644844 67.742344 
" style="fill: none; stroke: #8b5cf6; stroke-width: 1.15; stroke-linecap: square"/>
    </g>
    <g id="text_23">
     <text style="font-size: 7px; font-family: 'DejaVu Sans', 'Bitstream Vera Sans', 'Computer Modern Sans Serif', 'Lucida Grande', 'Verdana', 'Geneva', 'Lucid', 'Arial', 'Helvetica', 'Avant Garde', sans-serif; text-anchor: start" x="126.244844" y="70.192344" transform="rotate(-0 126.244844 70.192344)">Cache-500</text>
    </g>
    <g id="line2d_42">
     <path d="M 195.907969 16.368906 
L 202.907969 16.368906 
L 209.907969 16.368906 
" style="fill: none; stroke: #56b4e9; stroke-width: 1.15; stroke-linecap: square"/>
    </g>
    <g id="text_24">
     <text style="font-size: 7px; font-family: 'DejaVu Sans', 'Bitstream Vera Sans', 'Computer Modern Sans Serif', 'Lucida Grande', 'Verdana', 'Geneva', 'Lucid', 'Arial', 'Helvetica', 'Avant Garde', sans-serif; text-anchor: start" x="215.507969" y="18.818906" transform="rotate(-0 215.507969 18.818906)">Local stump</text>
    </g>
    <g id="line2d_43">
     <path d="M 195.907969 26.643594 
L 202.907969 26.643594 
L 209.907969 26.643594 
" style="fill: none; stroke: #0072b2; stroke-width: 1.15; stroke-linecap: square"/>
    </g>
    <g id="text_25">
     <text style="font-size: 7px; font-family: 'DejaVu Sans', 'Bitstream Vera Sans', 'Computer Modern Sans Serif', 'Lucida Grande', 'Verdana', 'Geneva', 'Lucid', 'Arial', 'Helvetica', 'Avant Garde', sans-serif; text-anchor: start" x="215.507969" y="29.093594" transform="rotate(-0 215.507969 29.093594)">DGM-HQS</text>
    </g>
    <g id="line2d_44">
     <path d="M 195.907969 36.918281 
L 202.907969 36.918281 
L 209.907969 36.918281 
" style="fill: none; stroke: #009e73; stroke-width: 1.15; stroke-linecap: square"/>
    </g>
    <g id="text_26">
     <text style="font-size: 7px; font-family: 'DejaVu Sans', 'Bitstream Vera Sans', 'Computer Modern Sans Serif', 'Lucida Grande', 'Verdana', 'Geneva', 'Lucid', 'Arial', 'Helvetica', 'Avant Garde', sans-serif; text-anchor: start" x="215.507969" y="39.368281" transform="rotate(-0 215.507969 39.368281)">Oracle refined</text>
    </g>
    <g id="line2d_45">
     <path d="M 195.907969 47.194062 
L 202.907969 47.194062 
L 209.907969 47.194062 
" style="fill: none; stroke-dasharray: 0.7,1.155; stroke-dashoffset: 0; stroke: #111111; stroke-width: 0.7"/>
    </g>
    <g id="text_27">
     <!-- $\log 2$ -->
     <g transform="translate(215.507969 49.644062)">
      <text>
       <tspan x="0" y="-0.6875" style="font-size: 7px; font-family: 'DejaVu Sans'">l</tspan>
       <tspan x="1.944824" y="-0.6875" style="font-size: 7px; font-family: 'DejaVu Sans'">o</tspan>
       <tspan x="6.227539" y="-0.6875" style="font-size: 7px; font-family: 'DejaVu Sans'">g</tspan>
       <tspan x="11.807396" y="-0.6875" style="font-size: 7px; font-family: 'DejaVu Sans'">2</tspan>
      </text>
     </g>
    </g>
    <g id="line2d_46">
     <path d="M 195.907969 57.484062 
L 202.907969 57.484062 
L 209.907969 57.484062 
" style="fill: none; stroke-dasharray: 2.59,1.12; stroke-dashoffset: 0; stroke: #374151; stroke-width: 0.7"/>
    </g>
    <g id="text_28">
     <!-- $H(\eta)$ -->
     <g transform="translate(215.507969 59.934062)">
      <text>
       <tspan x="0" y="-0.6875" style="font-style: oblique; font-size: 7px; font-family: 'DejaVu Sans'">H</tspan>
       <tspan x="7.994629" y="-0.6875" style="font-style: oblique; font-size: 7px; font-family: 'DejaVu Sans'">η</tspan>
       <tspan x="5.263672" y="-0.6875" style="font-size: 7px; font-family: 'DejaVu Sans'">(</tspan>
       <tspan x="12.431152" y="-0.6875" style="font-size: 7px; font-family: 'DejaVu Sans'">)</tspan>
      </text>
     </g>
    </g>
   </g>
  </g>
 </g>
 <defs>
  <clipPath id="p24ab43e023">
   <rect x="37.074688" y="7.2" width="234.36" height="155.232"/>
  </clipPath>
 </defs>
</svg>
