<?xml version="1.0" encoding="utf-8" standalone="no"?>
<!DOCTYPE svg PUBLIC "-//W3C//DTD SVG 1.1//EN"
  "http://www.w3.org/Graphics/SVG/1.1/DTD/svg11.dtd">
<svg xmlns:xlink="http://www.w3.org/1999/xlink" width="334.032167pt" height="193.133187pt" viewBox="0 0 334.032167 193.133187" xmlns="http://www.w3.org/2000/svg" version="1.1">
 <metadata>
  <rdf:RDF xmlns:dc="http://purl.org/dc/elements/1.1/" xmlns:cc="http://creativecommons.org/ns#" xmlns:rdf="http://www.w3.org/1999/02/22-rdf-syntax-ns#">
   <cc:Work>
    <dc:type rdf:resource="http://purl.org/dc/dcmitype/StillImage"/>
    <dc:date>2026-05-02T00:29:34.710488</dc:date>
    <dc:format>image/svg+xml</dc:format>
    <dc:creator>
     <cc:Agent>
      <dc:title>Matplotlib v3.10.6, https://matplotlib.org/</dc:title>
     </cc:Agent>
    </dc:creator>
   </cc:Work>
  </rdf:RDF>
 </metadata>
 <defs>
  <style type="text/css">*{stroke-linejoin: round; stroke-linecap: butt}</style>
 </defs>
 <g id="figure_1">
  <g id="patch_1">
   <path d="M 0 193.133187 
L 334.032167 193.133187 
L 334.032167 0 
L 0 0 
z
" style="fill: #ffffff"/>
  </g>
  <g id="axes_1">
   <g id="patch_2">
    <path d="M 37.074688 160.416 
L 282.018688 160.416 
L 282.018688 7.2 
L 37.074688 7.2 
z
" style="fill: #ffffff"/>
   </g>
   <g id="matplotlib.axis_1">
    <g id="xtick_1">
     <g id="line2d_1">
      <path d="M 48.208506 160.416 
L 48.208506 7.2 
" clip-path="url(#pcebcf8e5de)" style="fill: none; stroke: #e5e7eb; stroke-width: 0.6; stroke-linecap: square"/>
     </g>
     <g id="line2d_2">
      <defs>
       <path id="m68ae153c01" d="M 0 0 
L 0 3.5 
" style="stroke: #000000; stroke-width: 0.8"/>
      </defs>
      <g>
       <use xlink:href="#m68ae153c01" x="48.208506" y="160.416" style="stroke: #000000; stroke-width: 0.8"/>
      </g>
     </g>
     <g id="text_1">
      <!-- $\mathdefault{10^{2}}$ -->
      <g transform="translate(42.048506 172.734906)">
       <text>
        <tspan x="0" y="-0.678125" style="font-size: 7px; font-family: 'DejaVu Sans'">1</tspan>
        <tspan x="4.453613" y="-0.678125" style="font-size: 7px; font-family: 'DejaVu Sans'">0</tspan>
        <tspan x="8.974219" y="-3.357812" style="font-size: 4.9px; font-family: 'DejaVu Sans'">2</tspan>
       </text>
      </g>
     </g>
    </g>
    <g id="xtick_2">
     <g id="line2d_3">
      <path d="M 219.333856 160.416 
L 219.333856 7.2 
" clip-path="url(#pcebcf8e5de)" style="fill: none; stroke: #e5e7eb; stroke-width: 0.6; stroke-linecap: square"/>
     </g>
     <g id="line2d_4">
      <g>
       <use xlink:href="#m68ae153c01" x="219.333856" y="160.416" style="stroke: #000000; stroke-width: 0.8"/>
      </g>
     </g>
     <g id="text_2">
      <!-- $\mathdefault{10^{3}}$ -->
      <g transform="translate(213.173856 172.734906)">
       <text>
        <tspan x="0" y="-0.678125" style="font-size: 7px; font-family: 'DejaVu Sans'">1</tspan>
        <tspan x="4.453613" y="-0.678125" style="font-size: 7px; font-family: 'DejaVu Sans'">0</tspan>
        <tspan x="8.974219" y="-3.357812" style="font-size: 4.9px; font-family: 'DejaVu Sans'">3</tspan>
       </text>
      </g>
     </g>
    </g>
    <g id="xtick_3">
     <g id="line2d_5">
      <defs>
       <path id="m54cfa2d909" d="M 0 0 
L 0 2 
" style="stroke: #000000; stroke-width: 0.6"/>
      </defs>
      <g>
       <use xlink:href="#m54cfa2d909" x="40.378239" y="160.416" style="stroke: #000000; stroke-width: 0.6"/>
      </g>
     </g>
    </g>
    <g id="xtick_4">
     <g id="line2d_6">
      <g>
       <use xlink:href="#m54cfa2d909" x="99.722369" y="160.416" style="stroke: #000000; stroke-width: 0.6"/>
      </g>
     </g>
    </g>
    <g id="xtick_5">
     <g id="line2d_7">
      <g>
       <use xlink:href="#m54cfa2d909" x="129.856047" y="160.416" style="stroke: #000000; stroke-width: 0.6"/>
      </g>
     </g>
    </g>
    <g id="xtick_6">
     <g id="line2d_8">
      <g>
       <use xlink:href="#m54cfa2d909" x="151.236232" y="160.416" style="stroke: #000000; stroke-width: 0.6"/>
      </g>
     </g>
    </g>
    <g id="xtick_7">
     <g id="line2d_9">
      <g>
       <use xlink:href="#m54cfa2d909" x="167.819992" y="160.416" style="stroke: #000000; stroke-width: 0.6"/>
      </g>
     </g>
    </g>
    <g id="xtick_8">
     <g id="line2d_10">
      <g>
       <use xlink:href="#m54cfa2d909" x="181.369911" y="160.416" style="stroke: #000000; stroke-width: 0.6"/>
      </g>
     </g>
    </g>
    <g id="xtick_9">
     <g id="line2d_11">
      <g>
       <use xlink:href="#m54cfa2d909" x="192.826204" y="160.416" style="stroke: #000000; stroke-width: 0.6"/>
      </g>
     </g>
    </g>
    <g id="xtick_10">
     <g id="line2d_12">
      <g>
       <use xlink:href="#m54cfa2d909" x="202.750096" y="160.416" style="stroke: #000000; stroke-width: 0.6"/>
      </g>
     </g>
    </g>
    <g id="xtick_11">
     <g id="line2d_13">
      <g>
       <use xlink:href="#m54cfa2d909" x="211.503589" y="160.416" style="stroke: #000000; stroke-width: 0.6"/>
      </g>
     </g>
    </g>
    <g id="xtick_12">
     <g id="line2d_14">
      <g>
       <use xlink:href="#m54cfa2d909" x="270.847719" y="160.416" style="stroke: #000000; stroke-width: 0.6"/>
      </g>
     </g>
    </g>
    <g id="text_3">
     <text style="font-size: 8px; font-family: 'DejaVu Sans', 'Bitstream Vera Sans', 'Computer Modern Sans Serif', 'Lucida Grande', 'Verdana', 'Geneva', 'Lucid', 'Arial', 'Helvetica', 'Avant Garde', sans-serif; text-anchor: middle" x="159.546688" y="184.269437" transform="rotate(-0 159.546688 184.269437)">Atoms / cells / stored examples</text>
    </g>
   </g>
   <g id="matplotlib.axis_2">
    <g id="ytick_1">
     <g id="line2d_15">
      <path d="M 37.074688 160.416 
L 282.018688 160.416 
" clip-path="url(#pcebcf8e5de)" style="fill: none; stroke: #e5e7eb; stroke-width: 0.6; stroke-linecap: square"/>
     </g>
     <g id="line2d_16">
      <defs>
       <path id="me76fae1c84" d="M 0 0 
L -3.5 0 
" style="stroke: #000000; stroke-width: 0.8"/>
      </defs>
      <g>
       <use xlink:href="#me76fae1c84" x="37.074688" y="160.416" style="stroke: #000000; stroke-width: 0.8"/>
      </g>
     </g>
     <g id="text_4">
      <text style="font-size: 7px; font-family: 'DejaVu Sans', 'Bitstream Vera Sans', 'Computer Modern Sans Serif', 'Lucida Grande', 'Verdana', 'Geneva', 'Lucid', 'Arial', 'Helvetica', 'Avant Garde', sans-serif; text-anchor: end" x="30.074688" y="163.075453" transform="rotate(-0 30.074688 163.075453)">0.0</text>
     </g>
    </g>
    <g id="ytick_2">
     <g id="line2d_17">
      <path d="M 37.074688 142.390588 
L 282.018688 142.390588 
" clip-path="url(#pcebcf8e5de)" style="fill: none; stroke: #e5e7eb; stroke-width: 0.6; stroke-linecap: square"/>
     </g>
     <g id="line2d_18">
      <g>
       <use xlink:href="#me76fae1c84" x="37.074688" y="142.390588" style="stroke: #000000; stroke-width: 0.8"/>
      </g>
     </g>
     <g id="text_5">
      <text style="font-size: 7px; font-family: 'DejaVu Sans', 'Bitstream Vera Sans', 'Computer Modern Sans Serif', 'Lucida Grande', 'Verdana', 'Geneva', 'Lucid', 'Arial', 'Helvetica', 'Avant Garde', sans-serif; text-anchor: end" x="30.074688" y="145.050041" transform="rotate(-0 30.074688 145.050041)">0.1</text>
     </g>
    </g>
    <g id="ytick_3">
     <g id="line2d_19">
      <path d="M 37.074688 124.365176 
L 282.018688 124.365176 
" clip-path="url(#pcebcf8e5de)" style="fill: none; stroke: #e5e7eb; stroke-width: 0.6; stroke-linecap: square"/>
     </g>
     <g id="line2d_20">
      <g>
       <use xlink:href="#me76fae1c84" x="37.074688" y="124.365176" style="stroke: #000000; stroke-width: 0.8"/>
      </g>
     </g>
     <g id="text_6">
      <text style="font-size: 7px; font-family: 'DejaVu Sans', 'Bitstream Vera Sans', 'Computer Modern Sans Serif', 'Lucida Grande', 'Verdana', 'Geneva', 'Lucid', 'Arial', 'Helvetica', 'Avant Garde', sans-serif; text-anchor: end" x="30.074688" y="127.02463" transform="rotate(-0 30.074688 127.02463)">0.2</text>
     </g>
    </g>
    <g id="ytick_4">
     <g id="line2d_21">
      <path d="M 37.074688 106.339765 
L 282.018688 106.339765 
" clip-path="url(#pcebcf8e5de)" style="fill: none; stroke: #e5e7eb; stroke-width: 0.6; stroke-linecap: square"/>
     </g>
     <g id="line2d_22">
      <g>
       <use xlink:href="#me76fae1c84" x="37.074688" y="106.339765" style="stroke: #000000; stroke-width: 0.8"/>
      </g>
     </g>
     <g id="text_7">
      <text style="font-size: 7px; font-family: 'DejaVu Sans', 'Bitstream Vera Sans', 'Computer Modern Sans Serif', 'Lucida Grande', 'Verdana', 'Geneva', 'Lucid', 'Arial', 'Helvetica', 'Avant Garde', sans-serif; text-anchor: end" x="30.074688" y="108.999218" transform="rotate(-0 30.074688 108.999218)">0.3</text>
     </g>
    </g>
    <g id="ytick_5">
     <g id="line2d_23">
      <path d="M 37.074688 88.314353 
L 282.018688 88.314353 
" clip-path="url(#pcebcf8e5de)" style="fill: none; stroke: #e5e7eb; stroke-width: 0.6; stroke-linecap: square"/>
     </g>
     <g id="line2d_24">
      <g>
       <use xlink:href="#me76fae1c84" x="37.074688" y="88.314353" style="stroke: #000000; stroke-width: 0.8"/>
      </g>
     </g>
     <g id="text_8">
      <text style="font-size: 7px; font-family: 'DejaVu Sans', 'Bitstream Vera Sans', 'Computer Modern Sans Serif', 'Lucida Grande', 'Verdana', 'Geneva', 'Lucid', 'Arial', 'Helvetica', 'Avant Garde', sans-serif; text-anchor: end" x="30.074688" y="90.973806" transform="rotate(-0 30.074688 90.973806)">0.4</text>
     </g>
    </g>
    <g id="ytick_6">
     <g id="line2d_25">
      <path d="M 37.074688 70.288941 
L 282.018688 70.288941 
" clip-path="url(#pcebcf8e5de)" style="fill: none; stroke: #e5e7eb; stroke-width: 0.6; stroke-linecap: square"/>
     </g>
     <g id="line2d_26">
      <g>
       <use xlink:href="#me76fae1c84" x="37.074688" y="70.288941" style="stroke: #000000; stroke-width: 0.8"/>
      </g>
     </g>
     <g id="text_9">
      <text style="font-size: 7px; font-family: 'DejaVu Sans', 'Bitstream Vera Sans', 'Computer Modern Sans Serif', 'Lucida Grande', 'Verdana', 'Geneva', 'Lucid', 'Arial', 'Helvetica', 'Avant Garde', sans-serif; text-anchor: end" x="30.074688" y="72.948394" transform="rotate(-0 30.074688 72.948394)">0.5</text>
     </g>
    </g>
    <g id="ytick_7">
     <g id="line2d_27">
      <path d="M 37.074688 52.263529 
L 282.018688 52.263529 
" clip-path="url(#pcebcf8e5de)" style="fill: none; stroke: #e5e7eb; stroke-width: 0.6; stroke-linecap: square"/>
     </g>
     <g id="line2d_28">
      <g>
       <use xlink:href="#me76fae1c84" x="37.074688" y="52.263529" style="stroke: #000000; stroke-width: 0.8"/>
      </g>
     </g>
     <g id="text_10">
      <text style="font-size: 7px; font-family: 'DejaVu Sans', 'Bitstream Vera Sans', 'Computer Modern Sans Serif', 'Lucida Grande', 'Verdana', 'Geneva', 'Lucid', 'Arial', 'Helvetica', 'Avant Garde', sans-serif; text-anchor: end" x="30.074688" y="54.922983" transform="rotate(-0 30.074688 54.922983)">0.6</text>
     </g>
    </g>
    <g id="ytick_8">
     <g id="line2d_29">
      <path d="M 37.074688 34.238118 
L 282.018688 34.238118 
" clip-path="url(#pcebcf8e5de)" style="fill: none; stroke: #e5e7eb; stroke-width: 0.6; stroke-linecap: square"/>
     </g>
     <g id="line2d_30">
      <g>
       <use xlink:href="#me76fae1c84" x="37.074688" y="34.238118" style="stroke: #000000; stroke-width: 0.8"/>
      </g>
     </g>
     <g id="text_11">
      <text style="font-size: 7px; font-family: 'DejaVu Sans', 'Bitstream Vera Sans', 'Computer Modern Sans Serif', 'Lucida Grande', 'Verdana', 'Geneva', 'Lucid', 'Arial', 'Helvetica', 'Avant Garde', sans-serif; text-anchor: end" x="30.074688" y="36.897571" transform="rotate(-0 30.074688 36.897571)">0.7</text>
     </g>
    </g>
    <g id="ytick_9">
     <g id="line2d_31">
      <path d="M 37.074688 16.212706 
L 282.018688 16.212706 
" clip-path="url(#pcebcf8e5de)" style="fill: none; stroke: #e5e7eb; stroke-width: 0.6; stroke-linecap: square"/>
     </g>
     <g id="line2d_32">
      <g>
       <use xlink:href="#me76fae1c84" x="37.074688" y="16.212706" style="stroke: #000000; stroke-width: 0.8"/>
      </g>
     </g>
     <g id="text_12">
      <text style="font-size: 7px; font-family: 'DejaVu Sans', 'Bitstream Vera Sans', 'Computer Modern Sans Serif', 'Lucida Grande', 'Verdana', 'Geneva', 'Lucid', 'Arial', 'Helvetica', 'Avant Garde', sans-serif; text-anchor: end" x="30.074688" y="18.872159" transform="rotate(-0 30.074688 18.872159)">0.8</text>
     </g>
    </g>
    <g id="text_13">
     <text style="font-size: 8px; font-family: 'DejaVu Sans', 'Bitstream Vera Sans', 'Computer Modern Sans Serif', 'Lucida Grande', 'Verdana', 'Geneva', 'Lucid', 'Arial', 'Helvetica', 'Avant Garde', sans-serif; text-anchor: middle" x="13.27875" y="83.808" transform="rotate(-90 13.27875 83.808)">Final held-out NLL</text>
    </g>
   </g>
   <g id="line2d_33">
    <path d="M 37.074688 142.744046 
L 282.018688 142.744046 
" clip-path="url(#pcebcf8e5de)" style="fill: none; stroke-dasharray: 2.59,1.12; stroke-dashoffset: 0; stroke: #374151; stroke-width: 0.7"/>
   </g>
   <g id="patch_3">
    <path d="M 37.074688 160.416 
L 37.074688 7.2 
" style="fill: none; stroke: #000000; stroke-width: 0.8; stroke-linejoin: miter; stroke-linecap: square"/>
   </g>
   <g id="patch_4">
    <path d="M 37.074687 160.416 
L 282.018688 160.416 
" style="fill: none; stroke: #000000; stroke-width: 0.8; stroke-linejoin: miter; stroke-linecap: square"/>
   </g>
   <g id="PathCollection_1">
    <defs>
     <path id="ma3e8b6d4f4" d="M 0 3 
C 0.795609 3 1.55874 2.683901 2.12132 2.12132 
C 2.683901 1.55874 3 0.795609 3 0 
C 3 -0.795609 2.683901 -1.55874 2.12132 -2.12132 
C 1.55874 -2.683901 0.795609 -3 0 -3 
C -0.795609 -3 -1.55874 -2.683901 -2.12132 -2.12132 
C -2.683901 -1.55874 -3 -0.795609 -3 0 
C -3 0.795609 -2.683901 1.55874 -2.12132 2.12132 
C -1.55874 2.683901 -0.795609 3 0 3 
z
" style="stroke: #ffffff; stroke-width: 0.5"/>
    </defs>
    <g clip-path="url(#pcebcf8e5de)">
     <use xlink:href="#ma3e8b6d4f4" x="48.208506" y="35.339517" style="fill: #6b7280; stroke: #ffffff; stroke-width: 0.5"/>
    </g>
   </g>
   <g id="text_14">
    <text style="font-size: 6.8px; font-family: 'DejaVu Sans', 'Bitstream Vera Sans', 'Computer Modern Sans Serif', 'Lucida Grande', 'Verdana', 'Geneva', 'Lucid', 'Arial', 'Helvetica', 'Avant Garde', sans-serif; text-anchor: start; fill: #374151" x="50.765178" y="34.257992" transform="rotate(-0 50.765178 34.257992)">Repair only</text>
   </g>
   <g id="PathCollection_2">
    <defs>
     <path id="m89acd2cc9a" d="M 0 3 
C 0.795609 3 1.55874 2.683901 2.12132 2.12132 
C 2.683901 1.55874 3 0.795609 3 0 
C 3 -0.795609 2.683901 -1.55874 2.12132 -2.12132 
C 1.55874 -2.683901 0.795609 -3 0 -3 
C -0.795609 -3 -1.55874 -2.683901 -2.12132 -2.12132 
C -2.683901 -1.55874 -3 -0.795609 -3 0 
C -3 0.795609 -2.683901 1.55874 -2.12132 2.12132 
C -1.55874 2.683901 -0.795609 3 0 3 
z
" style="stroke: #ffffff; stroke-width: 0.5"/>
    </defs>
    <g clip-path="url(#pcebcf8e5de)">
     <use xlink:href="#m89acd2cc9a" x="99.722369" y="43.954005" style="fill: #dc2626; stroke: #ffffff; stroke-width: 0.5"/>
    </g>
   </g>
   <g id="text_15">
    <text style="font-size: 6.8px; font-family: 'DejaVu Sans', 'Bitstream Vera Sans', 'Computer Modern Sans Serif', 'Lucida Grande', 'Verdana', 'Geneva', 'Lucid', 'Arial', 'Helvetica', 'Avant Garde', sans-serif; text-anchor: start; fill: #374151" x="102.279042" y="42.87248" transform="rotate(-0 102.279042 42.87248)">Frequency only</text>
   </g>
   <g id="PathCollection_3">
    <defs>
     <path id="m0966a84357" d="M 0 3 
C 0.795609 3 1.55874 2.683901 2.12132 2.12132 
C 2.683901 1.55874 3 0.795609 3 0 
C 3 -0.795609 2.683901 -1.55874 2.12132 -2.12132 
C 1.55874 -2.683901 0.795609 -3 0 -3 
C -0.795609 -3 -1.55874 -2.683901 -2.12132 -2.12132 
C -2.683901 -1.55874 -3 -0.795609 -3 0 
C -3 0.795609 -2.683901 1.55874 -2.12132 2.12132 
C -1.55874 2.683901 -0.795609 3 0 3 
z
" style="stroke: #ffffff; stroke-width: 0.5"/>
    </defs>
    <g clip-path="url(#pcebcf8e5de)">
     <use xlink:href="#m0966a84357" x="62.375181" y="38.919134" style="fill: #9ca3af; stroke: #ffffff; stroke-width: 0.5"/>
    </g>
   </g>
   <g id="text_16">
    <text style="font-size: 6.8px; font-family: 'DejaVu Sans', 'Bitstream Vera Sans', 'Computer Modern Sans Serif', 'Lucida Grande', 'Verdana', 'Geneva', 'Lucid', 'Arial', 'Helvetica', 'Avant Garde', sans-serif; text-anchor: start; fill: #374151" x="64.931854" y="37.837609" transform="rotate(-0 64.931854 37.837609)">Additive logistic</text>
   </g>
   <g id="PathCollection_4">
    <defs>
     <path id="m660b35ed77" d="M 0 3 
C 0.795609 3 1.55874 2.683901 2.12132 2.12132 
C 2.683901 1.55874 3 0.795609 3 0 
C 3 -0.795609 2.683901 -1.55874 2.12132 -2.12132 
C 1.55874 -2.683901 0.795609 -3 0 -3 
C -0.795609 -3 -1.55874 -2.683901 -2.12132 -2.12132 
C -2.683901 -1.55874 -3 -0.795609 -3 0 
C -3 0.795609 -2.683901 1.55874 -2.12132 2.12132 
C -1.55874 2.683901 -0.795609 3 0 3 
z
" style="stroke: #ffffff; stroke-width: 0.5"/>
    </defs>
    <g clip-path="url(#pcebcf8e5de)">
     <use xlink:href="#m660b35ed77" x="99.722369" y="34.393259" style="fill: #a78bfa; stroke: #ffffff; stroke-width: 0.5"/>
    </g>
   </g>
   <g id="text_17">
    <text style="font-size: 6.8px; font-family: 'DejaVu Sans', 'Bitstream Vera Sans', 'Computer Modern Sans Serif', 'Lucida Grande', 'Verdana', 'Geneva', 'Lucid', 'Arial', 'Helvetica', 'Avant Garde', sans-serif; text-anchor: start; fill: #374151" x="102.279042" y="33.311735" transform="rotate(-0 102.279042 33.311735)">Cache-200</text>
   </g>
   <g id="PathCollection_5">
    <defs>
     <path id="m2fdddeaa6d" d="M 0 3 
C 0.795609 3 1.55874 2.683901 2.12132 2.12132 
C 2.683901 1.55874 3 0.795609 3 0 
C 3 -0.795609 2.683901 -1.55874 2.12132 -2.12132 
C 1.55874 -2.683901 0.795609 -3 0 -3 
C -0.795609 -3 -1.55874 -2.683901 -2.12132 -2.12132 
C -2.683901 -1.55874 -3 -0.795609 -3 0 
C -3 0.795609 -2.683901 1.55874 -2.12132 2.12132 
C -1.55874 2.683901 -0.795609 3 0 3 
z
" style="stroke: #ffffff; stroke-width: 0.5"/>
    </defs>
    <g clip-path="url(#pcebcf8e5de)">
     <use xlink:href="#m2fdddeaa6d" x="167.819992" y="35.20033" style="fill: #8b5cf6; stroke: #ffffff; stroke-width: 0.5"/>
    </g>
   </g>
   <g id="text_18">
    <text style="font-size: 6.8px; font-family: 'DejaVu Sans', 'Bitstream Vera Sans', 'Computer Modern Sans Serif', 'Lucida Grande', 'Verdana', 'Geneva', 'Lucid', 'Arial', 'Helvetica', 'Avant Garde', sans-serif; text-anchor: start; fill: #374151" x="170.376665" y="34.118805" transform="rotate(-0 170.376665 34.118805)">Cache-500</text>
   </g>
   <g id="PathCollection_6">
    <defs>
     <path id="m926ac66974" d="M 0 3 
C 0.795609 3 1.55874 2.683901 2.12132 2.12132 
C 2.683901 1.55874 3 0.795609 3 0 
C 3 -0.795609 2.683901 -1.55874 2.12132 -2.12132 
C 1.55874 -2.683901 0.795609 -3 0 -3 
C -0.795609 -3 -1.55874 -2.683901 -2.12132 -2.12132 
C -2.683901 -1.55874 -3 -0.795609 -3 0 
C -3 0.795609 -2.683901 1.55874 -2.12132 2.12132 
C -1.55874 2.683901 -0.795609 3 0 3 
z
" style="stroke: #ffffff; stroke-width: 0.5"/>
    </defs>
    <g clip-path="url(#pcebcf8e5de)">
     <use xlink:href="#m926ac66974" x="99.722369" y="142.489205" style="fill: #56b4e9; stroke: #ffffff; stroke-width: 0.5"/>
    </g>
   </g>
   <g id="text_19">
    <text style="font-size: 6.8px; font-family: 'DejaVu Sans', 'Bitstream Vera Sans', 'Computer Modern Sans Serif', 'Lucida Grande', 'Verdana', 'Geneva', 'Lucid', 'Arial', 'Helvetica', 'Avant Garde', sans-serif; text-anchor: start; fill: #374151" x="102.279042" y="141.407681" transform="rotate(-0 102.279042 141.407681)">Local stump</text>
   </g>
   <g id="PathCollection_7">
    <defs>
     <path id="mb6b37ebced" d="M 0 -4.609772 
L -1.034958 -1.424498 
L -4.384154 -1.424498 
L -1.674598 0.54411 
L -2.709556 3.729384 
L -0 1.760776 
L 2.709556 3.729384 
L 1.674598 0.54411 
L 4.384154 -1.424498 
L 1.034958 -1.424498 
z
" style="stroke: #ffffff; stroke-width: 0.5"/>
    </defs>
    <g clip-path="url(#pcebcf8e5de)">
     <use xlink:href="#mb6b37ebced" x="99.722369" y="142.489205" style="fill: #0072b2; stroke: #ffffff; stroke-width: 0.5"/>
    </g>
   </g>
   <g id="text_20">
    <text style="font-size: 6.8px; font-family: 'DejaVu Sans', 'Bitstream Vera Sans', 'Computer Modern Sans Serif', 'Lucida Grande', 'Verdana', 'Geneva', 'Lucid', 'Arial', 'Helvetica', 'Avant Garde', sans-serif; text-anchor: start; fill: #374151" x="102.279042" y="141.407681" transform="rotate(-0 102.279042 141.407681)">DGM-HQS</text>
   </g>
   <g id="PathCollection_8">
    <defs>
     <path id="m983f3898a8" d="M 0 3 
C 0.795609 3 1.55874 2.683901 2.12132 2.12132 
C 2.683901 1.55874 3 0.795609 3 0 
C 3 -0.795609 2.683901 -1.55874 2.12132 -2.12132 
C 1.55874 -2.683901 0.795609 -3 0 -3 
C -0.795609 -3 -1.55874 -2.683901 -2.12132 -2.12132 
C -2.683901 -1.55874 -3 -0.795609 -3 0 
C -3 0.795609 -2.683901 1.55874 -2.12132 2.12132 
C -1.55874 2.683901 -0.795609 3 0 3 
z
" style="stroke: #ffffff; stroke-width: 0.5"/>
    </defs>
    <g clip-path="url(#pcebcf8e5de)">
     <use xlink:href="#m983f3898a8" x="99.722369" y="142.531549" style="fill: #009e73; stroke: #ffffff; stroke-width: 0.5"/>
    </g>
   </g>
   <g id="text_21">
    <text style="font-size: 6.8px; font-family: 'DejaVu Sans', 'Bitstream Vera Sans', 'Computer Modern Sans Serif', 'Lucida Grande', 'Verdana', 'Geneva', 'Lucid', 'Arial', 'Helvetica', 'Avant Garde', sans-serif; text-anchor: start; fill: #374151" x="102.279042" y="141.450024" transform="rotate(-0 102.279042 141.450024)">Oracle refined</text>
   </g>
   <g id="PathCollection_9">
    <defs>
     <path id="m16089b4aa4" d="M 0 3 
C 0.795609 3 1.55874 2.683901 2.12132 2.12132 
C 2.683901 1.55874 3 0.795609 3 0 
C 3 -0.795609 2.683901 -1.55874 2.12132 -2.12132 
C 1.55874 -2.683901 0.795609 -3 0 -3 
C -0.795609 -3 -1.55874 -2.683901 -2.12132 -2.12132 
C -2.683901 -1.55874 -3 -0.795609 -3 0 
C -3 0.795609 -2.683901 1.55874 -2.12132 2.12132 
C -1.55874 2.683901 -0.795609 3 0 3 
z
" style="stroke: #ffffff; stroke-width: 0.5"/>
    </defs>
    <g clip-path="url(#pcebcf8e5de)">
     <use xlink:href="#m16089b4aa4" x="270.884869" y="139.266975" style="fill: #e69f00; stroke: #ffffff; stroke-width: 0.5"/>
    </g>
   </g>
   <g id="text_22">
    <text style="font-size: 6.8px; font-family: 'DejaVu Sans', 'Bitstream Vera Sans', 'Computer Modern Sans Serif', 'Lucida Grande', 'Verdana', 'Geneva', 'Lucid', 'Arial', 'Helvetica', 'Avant Garde', sans-serif; text-anchor: start; fill: #374151" x="273.441542" y="138.185451" transform="rotate(-0 273.441542 138.185451)">Crossed logistic</text>
   </g>
  </g>
 </g>
 <defs>
  <clipPath id="pcebcf8e5de">
   <rect x="37.074688" y="7.2" width="244.944" height="153.216"/>
  </clipPath>
 </defs>
</svg>
