<?xml version="1.0" encoding="utf-8" standalone="no"?>
<!DOCTYPE svg PUBLIC "-//W3C//DTD SVG 1.1//EN"
  "http://www.w3.org/Graphics/SVG/1.1/DTD/svg11.dtd">
<svg xmlns:xlink="http://www.w3.org/1999/xlink" width="279.116335pt" height="195.149187pt" viewBox="0 0 279.116335 195.149187" xmlns="http://www.w3.org/2000/svg" version="1.1">
 <metadata>
  <rdf:RDF xmlns:dc="http://purl.org/dc/elements/1.1/" xmlns:cc="http://creativecommons.org/ns#" xmlns:rdf="http://www.w3.org/1999/02/22-rdf-syntax-ns#">
   <cc:Work>
    <dc:type rdf:resource="http://purl.org/dc/dcmitype/StillImage"/>
    <dc:date>2026-05-02T00:29:33.830925</dc:date>
    <dc:format>image/svg+xml</dc:format>
    <dc:creator>
     <cc:Agent>
      <dc:title>Matplotlib v3.10.6, https://matplotlib.org/</dc:title>
     </cc:Agent>
    </dc:creator>
   </cc:Work>
  </rdf:RDF>
 </metadata>
 <defs>
  <style type="text/css">*{stroke-linejoin: round; stroke-linecap: butt}</style>
 </defs>
 <g id="figure_1">
  <g id="patch_1">
   <path d="M 0 195.149187 
L 279.116335 195.149187 
L 279.116335 0 
L 0 0 
z
" style="fill: #ffffff"/>
  </g>
  <g id="axes_1">
   <g id="patch_2">
    <path d="M 37.074688 162.432 
L 271.434688 162.432 
L 271.434688 7.2 
L 37.074688 7.2 
z
" style="fill: #ffffff"/>
   </g>
   <g id="FillBetweenPolyCollection_1">
    <defs>
     <path id="m8be4b7bd88" d="M 47.727415 -162.609489 
L 47.727415 -161.871974 
L 58.940812 -160.659182 
L 70.154209 -160.165406 
L 81.367606 -159.964714 
L 92.581003 -159.895629 
L 103.7944 -159.838045 
L 115.007798 -159.745919 
L 126.221195 -159.623444 
L 137.434592 -159.560843 
L 148.647989 -159.510486 
L 159.861386 -159.481553 
L 171.074783 -159.482666 
L 182.28818 -159.452796 
L 193.501577 -159.465521 
L 204.714975 -159.432652 
L 215.928372 -159.423556 
L 227.141769 -159.398638 
L 238.355166 -159.398044 
L 249.568563 -159.377373 
L 260.78196 -159.383439 
L 260.78196 -159.495388 
L 260.78196 -159.495388 
L 249.568563 -159.510617 
L 238.355166 -159.534058 
L 227.141769 -159.564887 
L 215.928372 -159.588927 
L 204.714975 -159.622198 
L 193.501577 -159.646612 
L 182.28818 -159.652094 
L 171.074783 -159.709682 
L 159.861386 -159.729418 
L 148.647989 -159.778427 
L 137.434592 -159.823593 
L 126.221195 -159.869946 
L 115.007798 -159.899279 
L 103.7944 -159.972668 
L 92.581003 -160.009729 
L 81.367606 -160.411255 
L 70.154209 -160.71351 
L 58.940812 -161.398819 
L 47.727415 -162.609489 
z
"/>
    </defs>
    <g clip-path="url(#p3479daee0d)">
     <use xlink:href="#m8be4b7bd88" x="0" y="195.149187" style="fill: #6b7280; fill-opacity: 0.1"/>
    </g>
   </g>
   <g id="FillBetweenPolyCollection_2">
    <defs>
     <path id="m2335c72c32" d="M 47.727415 -162.609489 
L 47.727415 -161.871974 
L 58.940812 -160.659182 
L 70.154209 -160.165406 
L 81.367606 -160.418042 
L 92.581003 -156.106485 
L 103.7944 -151.335001 
L 115.007798 -150.086964 
L 126.221195 -149.852493 
L 137.434592 -149.402144 
L 148.647989 -149.182512 
L 159.861386 -149.02289 
L 171.074783 -148.926135 
L 182.28818 -148.800185 
L 193.501577 -148.781507 
L 204.714975 -148.7212 
L 215.928372 -148.650646 
L 227.141769 -148.582043 
L 238.355166 -148.525307 
L 249.568563 -148.468595 
L 260.78196 -148.441679 
L 260.78196 -152.981476 
L 260.78196 -152.981476 
L 249.568563 -153.001477 
L 238.355166 -153.034068 
L 227.141769 -153.102658 
L 215.928372 -153.121198 
L 204.714975 -153.194109 
L 193.501577 -153.254861 
L 182.28818 -153.271563 
L 171.074783 -153.367215 
L 159.861386 -153.420976 
L 148.647989 -153.568881 
L 137.434592 -153.797009 
L 126.221195 -154.094033 
L 115.007798 -154.730816 
L 103.7944 -156.395342 
L 92.581003 -160.793506 
L 81.367606 -161.223642 
L 70.154209 -160.71351 
L 58.940812 -161.398819 
L 47.727415 -162.609489 
z
"/>
    </defs>
    <g clip-path="url(#p3479daee0d)">
     <use xlink:href="#m2335c72c32" x="0" y="195.149187" style="fill: #dc2626; fill-opacity: 0.1"/>
    </g>
   </g>
   <g id="FillBetweenPolyCollection_3">
    <defs>
     <path id="m0451e0499b" d="M 47.727415 -162.874921 
L 47.727415 -159.895856 
L 58.940812 -157.514888 
L 70.154209 -157.049436 
L 81.367606 -156.433033 
L 92.581003 -156.192439 
L 103.7944 -156.209074 
L 115.007798 -155.666092 
L 126.221195 -155.592785 
L 137.434592 -155.535717 
L 148.647989 -155.614928 
L 159.861386 -155.407605 
L 171.074783 -155.477626 
L 182.28818 -155.468126 
L 193.501577 -155.351008 
L 204.714975 -155.601944 
L 215.928372 -155.147429 
L 227.141769 -155.201439 
L 238.355166 -155.049789 
L 249.568563 -155.063123 
L 260.78196 -155.130844 
L 260.78196 -156.494548 
L 260.78196 -156.494548 
L 249.568563 -155.534005 
L 238.355166 -156.075702 
L 227.141769 -156.522804 
L 215.928372 -156.135921 
L 204.714975 -156.066597 
L 193.501577 -156.625368 
L 182.28818 -155.870485 
L 171.074783 -155.959802 
L 159.861386 -156.03649 
L 148.647989 -156.291044 
L 137.434592 -156.001278 
L 126.221195 -156.444191 
L 115.007798 -156.858852 
L 103.7944 -157.478149 
L 92.581003 -156.556236 
L 81.367606 -158.328834 
L 70.154209 -157.561213 
L 58.940812 -159.283935 
L 47.727415 -162.874921 
z
"/>
    </defs>
    <g clip-path="url(#p3479daee0d)">
     <use xlink:href="#m0451e0499b" x="0" y="195.149187" style="fill: #9ca3af; fill-opacity: 0.1"/>
    </g>
   </g>
   <g id="FillBetweenPolyCollection_4">
    <defs>
     <path id="m5d8d75aa92" d="M 47.727415 -124.882148 
L 47.727415 -118.827952 
L 58.940812 -81.190988 
L 70.154209 -68.123622 
L 81.367606 -63.189697 
L 92.581003 -59.407828 
L 103.7944 -58.150977 
L 115.007798 -56.574694 
L 126.221195 -56.319322 
L 137.434592 -55.438521 
L 148.647989 -54.910441 
L 159.861386 -55.061612 
L 171.074783 -54.722531 
L 182.28818 -54.577027 
L 193.501577 -54.188089 
L 204.714975 -54.116761 
L 215.928372 -53.795707 
L 227.141769 -53.963107 
L 238.355166 -53.516792 
L 249.568563 -54.073169 
L 260.78196 -53.737403 
L 260.78196 -54.551575 
L 260.78196 -54.551575 
L 249.568563 -54.828591 
L 238.355166 -55.458072 
L 227.141769 -54.992895 
L 215.928372 -55.47768 
L 204.714975 -55.557249 
L 193.501577 -55.328674 
L 182.28818 -55.768561 
L 171.074783 -55.877094 
L 159.861386 -56.236276 
L 148.647989 -55.851511 
L 137.434592 -56.574792 
L 126.221195 -57.17237 
L 115.007798 -58.11017 
L 103.7944 -59.94756 
L 92.581003 -61.160867 
L 81.367606 -65.158218 
L 70.154209 -70.658645 
L 58.940812 -84.092852 
L 47.727415 -124.882148 
z
"/>
    </defs>
    <g clip-path="url(#p3479daee0d)">
     <use xlink:href="#m5d8d75aa92" x="0" y="195.149187" style="fill: #e69f00; fill-opacity: 0.1"/>
    </g>
   </g>
   <g id="FillBetweenPolyCollection_5">
    <defs>
     <path id="macd514bc5c" d="M 47.727415 -159.426502 
L 47.727415 -159.32279 
L 58.940812 -159.337771 
L 70.154209 -159.31003 
L 81.367606 -159.328047 
L 92.581003 -159.446299 
L 103.7944 -159.129329 
L 115.007798 -159.314494 
L 126.221195 -159.316221 
L 137.434592 -159.343342 
L 148.647989 -159.311302 
L 159.861386 -159.279784 
L 171.074783 -159.244278 
L 182.28818 -159.44005 
L 193.501577 -159.302433 
L 204.714975 -159.27651 
L 215.928372 -159.199184 
L 227.141769 -159.343205 
L 238.355166 -159.286898 
L 249.568563 -159.310269 
L 260.78196 -159.229509 
L 260.78196 -159.931356 
L 260.78196 -159.931356 
L 249.568563 -159.401756 
L 238.355166 -159.471901 
L 227.141769 -159.683068 
L 215.928372 -159.607629 
L 204.714975 -159.663602 
L 193.501577 -159.672363 
L 182.28818 -159.735062 
L 171.074783 -159.588794 
L 159.861386 -159.448829 
L 148.647989 -159.510227 
L 137.434592 -159.589091 
L 126.221195 -159.508048 
L 115.007798 -159.434848 
L 103.7944 -160.391753 
L 92.581003 -159.958473 
L 81.367606 -159.680194 
L 70.154209 -159.427418 
L 58.940812 -159.937831 
L 47.727415 -159.426502 
z
"/>
    </defs>
    <g clip-path="url(#p3479daee0d)">
     <use xlink:href="#macd514bc5c" x="0" y="195.149187" style="fill: #8b5cf6; fill-opacity: 0.1"/>
    </g>
   </g>
   <g id="FillBetweenPolyCollection_6">
    <defs>
     <path id="m5701d46cfb" d="M 47.727415 -162.609489 
L 47.727415 -161.871974 
L 58.940812 -160.659182 
L 70.154209 -160.165406 
L 81.367606 -131.860219 
L 92.581003 -53.637744 
L 103.7944 -51.279095 
L 115.007798 -50.99874 
L 126.221195 -50.944067 
L 137.434592 -50.772098 
L 148.647989 -50.689863 
L 159.861386 -50.596366 
L 171.074783 -50.583959 
L 182.28818 -50.50485 
L 193.501577 -50.462776 
L 204.714975 -50.463565 
L 215.928372 -50.405276 
L 227.141769 -50.419458 
L 238.355166 -50.366635 
L 249.568563 -50.361498 
L 260.78196 -50.322712 
L 260.78196 -51.43701 
L 260.78196 -51.43701 
L 249.568563 -51.444936 
L 238.355166 -51.486215 
L 227.141769 -51.474421 
L 215.928372 -51.510749 
L 204.714975 -51.499247 
L 193.501577 -51.538004 
L 182.28818 -51.577093 
L 171.074783 -51.644652 
L 159.861386 -51.714685 
L 148.647989 -51.821493 
L 137.434592 -51.965907 
L 126.221195 -52.021298 
L 115.007798 -52.082103 
L 103.7944 -52.378512 
L 92.581003 -57.088116 
L 81.367606 -136.389308 
L 70.154209 -160.71351 
L 58.940812 -161.398819 
L 47.727415 -162.609489 
z
"/>
    </defs>
    <g clip-path="url(#p3479daee0d)">
     <use xlink:href="#m5701d46cfb" x="0" y="195.149187" style="fill: #56b4e9; fill-opacity: 0.1"/>
    </g>
   </g>
   <g id="FillBetweenPolyCollection_7">
    <defs>
     <path id="md179f9465c" d="M 47.727415 -162.609489 
L 47.727415 -161.871974 
L 58.940812 -160.659182 
L 70.154209 -160.165406 
L 81.367606 -131.860219 
L 92.581003 -53.637744 
L 103.7944 -51.279095 
L 115.007798 -50.99874 
L 126.221195 -50.944067 
L 137.434592 -50.772098 
L 148.647989 -50.689863 
L 159.861386 -50.596366 
L 171.074783 -50.583959 
L 182.28818 -50.50485 
L 193.501577 -50.462776 
L 204.714975 -50.463565 
L 215.928372 -50.405276 
L 227.141769 -50.419458 
L 238.355166 -50.366635 
L 249.568563 -50.361498 
L 260.78196 -50.322712 
L 260.78196 -51.43701 
L 260.78196 -51.43701 
L 249.568563 -51.444936 
L 238.355166 -51.486215 
L 227.141769 -51.474421 
L 215.928372 -51.510749 
L 204.714975 -51.499247 
L 193.501577 -51.538004 
L 182.28818 -51.577093 
L 171.074783 -51.644652 
L 159.861386 -51.714685 
L 148.647989 -51.821493 
L 137.434592 -51.965907 
L 126.221195 -52.021298 
L 115.007798 -52.082103 
L 103.7944 -52.378512 
L 92.581003 -57.088116 
L 81.367606 -136.389308 
L 70.154209 -160.71351 
L 58.940812 -161.398819 
L 47.727415 -162.609489 
z
"/>
    </defs>
    <g clip-path="url(#p3479daee0d)">
     <use xlink:href="#md179f9465c" x="0" y="195.149187" style="fill: #0072b2; fill-opacity: 0.1"/>
    </g>
   </g>
   <g id="FillBetweenPolyCollection_8">
    <defs>
     <path id="m337640b1b6" d="M 47.727415 -57.536284 
L 47.727415 -57.117744 
L 58.940812 -52.816567 
L 70.154209 -51.698976 
L 81.367606 -51.270918 
L 92.581003 -51.00428 
L 103.7944 -50.8173 
L 115.007798 -50.711443 
L 126.221195 -50.720438 
L 137.434592 -50.623231 
L 148.647989 -50.581907 
L 159.861386 -50.505866 
L 171.074783 -50.51117 
L 182.28818 -50.445704 
L 193.501577 -50.405037 
L 204.714975 -50.410161 
L 215.928372 -50.359191 
L 227.141769 -50.367624 
L 238.355166 -50.329366 
L 249.568563 -50.330787 
L 260.78196 -50.29803 
L 260.78196 -51.375891 
L 260.78196 -51.375891 
L 249.568563 -51.386705 
L 238.355166 -51.421451 
L 227.141769 -51.406464 
L 215.928372 -51.424033 
L 204.714975 -51.412258 
L 193.501577 -51.4331 
L 182.28818 -51.458282 
L 171.074783 -51.513231 
L 159.861386 -51.566816 
L 148.647989 -51.651236 
L 137.434592 -51.744164 
L 126.221195 -51.776292 
L 115.007798 -51.775315 
L 103.7944 -51.904065 
L 92.581003 -52.057007 
L 81.367606 -52.204961 
L 70.154209 -52.657396 
L 58.940812 -53.631913 
L 47.727415 -57.536284 
z
"/>
    </defs>
    <g clip-path="url(#p3479daee0d)">
     <use xlink:href="#m337640b1b6" x="0" y="195.149187" style="fill: #009e73; fill-opacity: 0.1"/>
    </g>
   </g>
   <g id="matplotlib.axis_1">
    <g id="xtick_1">
     <g id="line2d_1">
      <defs>
       <path id="md0bc3e8c53" d="M 0 0 
L 0 3.5 
" style="stroke: #000000; stroke-width: 0.8"/>
      </defs>
      <g>
       <use xlink:href="#md0bc3e8c53" x="73.892008" y="162.432" style="stroke: #000000; stroke-width: 0.8"/>
      </g>
     </g>
     <g id="text_1">
      <text style="font-size: 7px; font-family: 'DejaVu Sans', 'Bitstream Vera Sans', 'Computer Modern Sans Serif', 'Lucida Grande', 'Verdana', 'Geneva', 'Lucid', 'Arial', 'Helvetica', 'Avant Garde', sans-serif; text-anchor: middle" x="73.892008" y="174.750906" transform="rotate(-0 73.892008 174.750906)">10000</text>
     </g>
    </g>
    <g id="xtick_2">
     <g id="line2d_2">
      <g>
       <use xlink:href="#md0bc3e8c53" x="111.269999" y="162.432" style="stroke: #000000; stroke-width: 0.8"/>
      </g>
     </g>
     <g id="text_2">
      <text style="font-size: 7px; font-family: 'DejaVu Sans', 'Bitstream Vera Sans', 'Computer Modern Sans Serif', 'Lucida Grande', 'Verdana', 'Geneva', 'Lucid', 'Arial', 'Helvetica', 'Avant Garde', sans-serif; text-anchor: middle" x="111.269999" y="174.750906" transform="rotate(-0 111.269999 174.750906)">20000</text>
     </g>
    </g>
    <g id="xtick_3">
     <g id="line2d_3">
      <g>
       <use xlink:href="#md0bc3e8c53" x="148.647989" y="162.432" style="stroke: #000000; stroke-width: 0.8"/>
      </g>
     </g>
     <g id="text_3">
      <text style="font-size: 7px; font-family: 'DejaVu Sans', 'Bitstream Vera Sans', 'Computer Modern Sans Serif', 'Lucida Grande', 'Verdana', 'Geneva', 'Lucid', 'Arial', 'Helvetica', 'Avant Garde', sans-serif; text-anchor: middle" x="148.647989" y="174.750906" transform="rotate(-0 148.647989 174.750906)">30000</text>
     </g>
    </g>
    <g id="xtick_4">
     <g id="line2d_4">
      <g>
       <use xlink:href="#md0bc3e8c53" x="186.025979" y="162.432" style="stroke: #000000; stroke-width: 0.8"/>
      </g>
     </g>
     <g id="text_4">
      <text style="font-size: 7px; font-family: 'DejaVu Sans', 'Bitstream Vera Sans', 'Computer Modern Sans Serif', 'Lucida Grande', 'Verdana', 'Geneva', 'Lucid', 'Arial', 'Helvetica', 'Avant Garde', sans-serif; text-anchor: middle" x="186.025979" y="174.750906" transform="rotate(-0 186.025979 174.750906)">40000</text>
     </g>
    </g>
    <g id="xtick_5">
     <g id="line2d_5">
      <g>
       <use xlink:href="#md0bc3e8c53" x="223.40397" y="162.432" style="stroke: #000000; stroke-width: 0.8"/>
      </g>
     </g>
     <g id="text_5">
      <text style="font-size: 7px; font-family: 'DejaVu Sans', 'Bitstream Vera Sans', 'Computer Modern Sans Serif', 'Lucida Grande', 'Verdana', 'Geneva', 'Lucid', 'Arial', 'Helvetica', 'Avant Garde', sans-serif; text-anchor: middle" x="223.40397" y="174.750906" transform="rotate(-0 223.40397 174.750906)">50000</text>
     </g>
    </g>
    <g id="xtick_6">
     <g id="line2d_6">
      <g>
       <use xlink:href="#md0bc3e8c53" x="260.78196" y="162.432" style="stroke: #000000; stroke-width: 0.8"/>
      </g>
     </g>
     <g id="text_6">
      <text style="font-size: 7px; font-family: 'DejaVu Sans', 'Bitstream Vera Sans', 'Computer Modern Sans Serif', 'Lucida Grande', 'Verdana', 'Geneva', 'Lucid', 'Arial', 'Helvetica', 'Avant Garde', sans-serif; text-anchor: middle" x="260.78196" y="174.750906" transform="rotate(-0 260.78196 174.750906)">60000</text>
     </g>
    </g>
    <g id="text_7">
     <text style="font-size: 8px; font-family: 'DejaVu Sans', 'Bitstream Vera Sans', 'Computer Modern Sans Serif', 'Lucida Grande', 'Verdana', 'Geneva', 'Lucid', 'Arial', 'Helvetica', 'Avant Garde', sans-serif; text-anchor: middle" x="154.254688" y="186.285437" transform="rotate(-0 154.254688 186.285437)">Online steps</text>
    </g>
   </g>
   <g id="matplotlib.axis_2">
    <g id="ytick_1">
     <g id="line2d_7">
      <path d="M 37.074688 162.432 
L 271.434688 162.432 
" clip-path="url(#p3479daee0d)" style="fill: none; stroke: #e5e7eb; stroke-width: 0.6; stroke-linecap: square"/>
     </g>
     <g id="line2d_8">
      <defs>
       <path id="m4b5c164c53" d="M 0 0 
L -3.5 0 
" style="stroke: #000000; stroke-width: 0.8"/>
      </defs>
      <g>
       <use xlink:href="#m4b5c164c53" x="37.074688" y="162.432" style="stroke: #000000; stroke-width: 0.8"/>
      </g>
     </g>
     <g id="text_8">
      <text style="font-size: 7px; font-family: 'DejaVu Sans', 'Bitstream Vera Sans', 'Computer Modern Sans Serif', 'Lucida Grande', 'Verdana', 'Geneva', 'Lucid', 'Arial', 'Helvetica', 'Avant Garde', sans-serif; text-anchor: end" x="30.074688" y="165.091453" transform="rotate(-0 30.074688 165.091453)">0.0</text>
     </g>
    </g>
    <g id="ytick_2">
     <g id="line2d_9">
      <path d="M 37.074688 144.169412 
L 271.434688 144.169412 
" clip-path="url(#p3479daee0d)" style="fill: none; stroke: #e5e7eb; stroke-width: 0.6; stroke-linecap: square"/>
     </g>
     <g id="line2d_10">
      <g>
       <use xlink:href="#m4b5c164c53" x="37.074688" y="144.169412" style="stroke: #000000; stroke-width: 0.8"/>
      </g>
     </g>
     <g id="text_9">
      <text style="font-size: 7px; font-family: 'DejaVu Sans', 'Bitstream Vera Sans', 'Computer Modern Sans Serif', 'Lucida Grande', 'Verdana', 'Geneva', 'Lucid', 'Arial', 'Helvetica', 'Avant Garde', sans-serif; text-anchor: end" x="30.074688" y="146.828865" transform="rotate(-0 30.074688 146.828865)">0.1</text>
     </g>
    </g>
    <g id="ytick_3">
     <g id="line2d_11">
      <path d="M 37.074688 125.906824 
L 271.434688 125.906824 
" clip-path="url(#p3479daee0d)" style="fill: none; stroke: #e5e7eb; stroke-width: 0.6; stroke-linecap: square"/>
     </g>
     <g id="line2d_12">
      <g>
       <use xlink:href="#m4b5c164c53" x="37.074688" y="125.906824" style="stroke: #000000; stroke-width: 0.8"/>
      </g>
     </g>
     <g id="text_10">
      <text style="font-size: 7px; font-family: 'DejaVu Sans', 'Bitstream Vera Sans', 'Computer Modern Sans Serif', 'Lucida Grande', 'Verdana', 'Geneva', 'Lucid', 'Arial', 'Helvetica', 'Avant Garde', sans-serif; text-anchor: end" x="30.074688" y="128.566277" transform="rotate(-0 30.074688 128.566277)">0.2</text>
     </g>
    </g>
    <g id="ytick_4">
     <g id="line2d_13">
      <path d="M 37.074688 107.644235 
L 271.434688 107.644235 
" clip-path="url(#p3479daee0d)" style="fill: none; stroke: #e5e7eb; stroke-width: 0.6; stroke-linecap: square"/>
     </g>
     <g id="line2d_14">
      <g>
       <use xlink:href="#m4b5c164c53" x="37.074688" y="107.644235" style="stroke: #000000; stroke-width: 0.8"/>
      </g>
     </g>
     <g id="text_11">
      <text style="font-size: 7px; font-family: 'DejaVu Sans', 'Bitstream Vera Sans', 'Computer Modern Sans Serif', 'Lucida Grande', 'Verdana', 'Geneva', 'Lucid', 'Arial', 'Helvetica', 'Avant Garde', sans-serif; text-anchor: end" x="30.074688" y="110.303688" transform="rotate(-0 30.074688 110.303688)">0.3</text>
     </g>
    </g>
    <g id="ytick_5">
     <g id="line2d_15">
      <path d="M 37.074688 89.381647 
L 271.434688 89.381647 
" clip-path="url(#p3479daee0d)" style="fill: none; stroke: #e5e7eb; stroke-width: 0.6; stroke-linecap: square"/>
     </g>
     <g id="line2d_16">
      <g>
       <use xlink:href="#m4b5c164c53" x="37.074688" y="89.381647" style="stroke: #000000; stroke-width: 0.8"/>
      </g>
     </g>
     <g id="text_12">
      <text style="font-size: 7px; font-family: 'DejaVu Sans', 'Bitstream Vera Sans', 'Computer Modern Sans Serif', 'Lucida Grande', 'Verdana', 'Geneva', 'Lucid', 'Arial', 'Helvetica', 'Avant Garde', sans-serif; text-anchor: end" x="30.074688" y="92.0411" transform="rotate(-0 30.074688 92.0411)">0.4</text>
     </g>
    </g>
    <g id="ytick_6">
     <g id="line2d_17">
      <path d="M 37.074688 71.119059 
L 271.434688 71.119059 
" clip-path="url(#p3479daee0d)" style="fill: none; stroke: #e5e7eb; stroke-width: 0.6; stroke-linecap: square"/>
     </g>
     <g id="line2d_18">
      <g>
       <use xlink:href="#m4b5c164c53" x="37.074688" y="71.119059" style="stroke: #000000; stroke-width: 0.8"/>
      </g>
     </g>
     <g id="text_13">
      <text style="font-size: 7px; font-family: 'DejaVu Sans', 'Bitstream Vera Sans', 'Computer Modern Sans Serif', 'Lucida Grande', 'Verdana', 'Geneva', 'Lucid', 'Arial', 'Helvetica', 'Avant Garde', sans-serif; text-anchor: end" x="30.074688" y="73.778512" transform="rotate(-0 30.074688 73.778512)">0.5</text>
     </g>
    </g>
    <g id="ytick_7">
     <g id="line2d_19">
      <path d="M 37.074688 52.856471 
L 271.434688 52.856471 
" clip-path="url(#p3479daee0d)" style="fill: none; stroke: #e5e7eb; stroke-width: 0.6; stroke-linecap: square"/>
     </g>
     <g id="line2d_20">
      <g>
       <use xlink:href="#m4b5c164c53" x="37.074688" y="52.856471" style="stroke: #000000; stroke-width: 0.8"/>
      </g>
     </g>
     <g id="text_14">
      <text style="font-size: 7px; font-family: 'DejaVu Sans', 'Bitstream Vera Sans', 'Computer Modern Sans Serif', 'Lucida Grande', 'Verdana', 'Geneva', 'Lucid', 'Arial', 'Helvetica', 'Avant Garde', sans-serif; text-anchor: end" x="30.074688" y="55.515924" transform="rotate(-0 30.074688 55.515924)">0.6</text>
     </g>
    </g>
    <g id="ytick_8">
     <g id="line2d_21">
      <path d="M 37.074688 34.593882 
L 271.434688 34.593882 
" clip-path="url(#p3479daee0d)" style="fill: none; stroke: #e5e7eb; stroke-width: 0.6; stroke-linecap: square"/>
     </g>
     <g id="line2d_22">
      <g>
       <use xlink:href="#m4b5c164c53" x="37.074688" y="34.593882" style="stroke: #000000; stroke-width: 0.8"/>
      </g>
     </g>
     <g id="text_15">
      <text style="font-size: 7px; font-family: 'DejaVu Sans', 'Bitstream Vera Sans', 'Computer Modern Sans Serif', 'Lucida Grande', 'Verdana', 'Geneva', 'Lucid', 'Arial', 'Helvetica', 'Avant Garde', sans-serif; text-anchor: end" x="30.074688" y="37.253335" transform="rotate(-0 30.074688 37.253335)">0.7</text>
     </g>
    </g>
    <g id="ytick_9">
     <g id="line2d_23">
      <path d="M 37.074688 16.331294 
L 271.434688 16.331294 
" clip-path="url(#p3479daee0d)" style="fill: none; stroke: #e5e7eb; stroke-width: 0.6; stroke-linecap: square"/>
     </g>
     <g id="line2d_24">
      <g>
       <use xlink:href="#m4b5c164c53" x="37.074688" y="16.331294" style="stroke: #000000; stroke-width: 0.8"/>
      </g>
     </g>
     <g id="text_16">
      <text style="font-size: 7px; font-family: 'DejaVu Sans', 'Bitstream Vera Sans', 'Computer Modern Sans Serif', 'Lucida Grande', 'Verdana', 'Geneva', 'Lucid', 'Arial', 'Helvetica', 'Avant Garde', sans-serif; text-anchor: end" x="30.074688" y="18.990747" transform="rotate(-0 30.074688 18.990747)">0.8</text>
     </g>
    </g>
    <g id="text_17">
     <text style="font-size: 8px; font-family: 'DejaVu Sans', 'Bitstream Vera Sans', 'Computer Modern Sans Serif', 'Lucida Grande', 'Verdana', 'Geneva', 'Lucid', 'Arial', 'Helvetica', 'Avant Garde', sans-serif; text-anchor: middle" x="13.27875" y="84.816" transform="rotate(-90 13.27875 84.816)">Held-out NLL</text>
    </g>
   </g>
   <g id="line2d_25">
    <path d="M 47.727415 32.908456 
L 58.940812 34.120187 
L 70.154209 34.709729 
L 81.367606 34.961203 
L 92.581003 35.196508 
L 103.7944 35.243831 
L 115.007798 35.326588 
L 126.221195 35.402492 
L 137.434592 35.456969 
L 148.647989 35.504731 
L 159.861386 35.543702 
L 171.074783 35.553014 
L 182.28818 35.596742 
L 193.501577 35.593121 
L 204.714975 35.621762 
L 215.928372 35.642946 
L 227.141769 35.667425 
L 238.355166 35.683136 
L 249.568563 35.705192 
L 260.78196 35.709774 
" clip-path="url(#p3479daee0d)" style="fill: none; stroke: #6b7280; stroke-width: 1.15; stroke-linecap: square"/>
   </g>
   <g id="line2d_26">
    <path d="M 47.727415 32.908456 
L 58.940812 34.120187 
L 70.154209 34.709729 
L 81.367606 34.328345 
L 92.581003 36.699192 
L 103.7944 41.284016 
L 115.007798 42.740297 
L 126.221195 43.175924 
L 137.434592 43.549611 
L 148.647989 43.773491 
L 159.861386 43.927255 
L 171.074783 44.002512 
L 182.28818 44.113313 
L 193.501577 44.131004 
L 204.714975 44.191533 
L 215.928372 44.263265 
L 227.141769 44.306837 
L 238.355166 44.3695 
L 249.568563 44.414152 
L 260.78196 44.43761 
" clip-path="url(#p3479daee0d)" style="fill: none; stroke: #dc2626; stroke-width: 1.15; stroke-linecap: square"/>
   </g>
   <g id="line2d_27">
    <path d="M 47.727415 33.763799 
L 58.940812 36.749776 
L 70.154209 37.843863 
L 81.367606 37.768254 
L 92.581003 38.77485 
L 103.7944 38.305576 
L 115.007798 38.886715 
L 126.221195 39.130699 
L 137.434592 39.38069 
L 148.647989 39.196201 
L 159.861386 39.42714 
L 171.074783 39.430474 
L 182.28818 39.479882 
L 193.501577 39.160999 
L 204.714975 39.314917 
L 215.928372 39.507512 
L 227.141769 39.287066 
L 238.355166 39.586442 
L 249.568563 39.850624 
L 260.78196 39.336491 
" clip-path="url(#p3479daee0d)" style="fill: none; stroke: #9ca3af; stroke-width: 1.15; stroke-linecap: square"/>
   </g>
   <g id="line2d_28">
    <path d="M 47.727415 73.294137 
L 58.940812 112.507268 
L 70.154209 125.758054 
L 81.367606 130.97523 
L 92.581003 134.86484 
L 103.7944 136.099919 
L 115.007798 137.806755 
L 126.221195 138.403341 
L 137.434592 139.142531 
L 148.647989 139.768211 
L 159.861386 139.500244 
L 171.074783 139.849375 
L 182.28818 139.976393 
L 193.501577 140.390806 
L 204.714975 140.312183 
L 215.928372 140.512494 
L 227.141769 140.671186 
L 238.355166 140.661756 
L 249.568563 140.698307 
L 260.78196 141.004699 
" clip-path="url(#p3479daee0d)" style="fill: none; stroke: #e69f00; stroke-width: 1.15; stroke-linecap: square"/>
   </g>
   <g id="line2d_29">
    <path d="M 47.727415 35.774541 
L 58.940812 35.511386 
L 70.154209 35.780464 
L 81.367606 35.645067 
L 92.581003 35.446802 
L 103.7944 35.388647 
L 115.007798 35.774517 
L 126.221195 35.737053 
L 137.434592 35.682971 
L 148.647989 35.738423 
L 159.861386 35.784881 
L 171.074783 35.732652 
L 182.28818 35.561632 
L 193.501577 35.661789 
L 204.714975 35.679131 
L 215.928372 35.745781 
L 227.141769 35.636051 
L 238.355166 35.769788 
L 249.568563 35.793175 
L 260.78196 35.568755 
" clip-path="url(#p3479daee0d)" style="fill: none; stroke: #8b5cf6; stroke-width: 1.15; stroke-linecap: square"/>
   </g>
   <g id="line2d_30">
    <path d="M 47.727415 32.908456 
L 58.940812 34.120187 
L 70.154209 34.709729 
L 81.367606 61.024424 
L 92.581003 139.786257 
L 103.7944 143.320384 
L 115.007798 143.608766 
L 126.221195 143.666505 
L 137.434592 143.780185 
L 148.647989 143.89351 
L 159.861386 143.993662 
L 171.074783 144.034882 
L 182.28818 144.108216 
L 193.501577 144.148797 
L 204.714975 144.167782 
L 215.928372 144.191175 
L 227.141769 144.202248 
L 238.355166 144.222762 
L 249.568563 144.245971 
L 260.78196 144.269327 
" clip-path="url(#p3479daee0d)" style="fill: none; stroke: #56b4e9; stroke-width: 1.15; stroke-linecap: square"/>
   </g>
   <g id="line2d_31">
    <path d="M 47.727415 32.908456 
L 58.940812 34.120187 
L 70.154209 34.709729 
L 81.367606 61.024424 
L 92.581003 139.786257 
L 103.7944 143.320384 
L 115.007798 143.608766 
L 126.221195 143.666505 
L 137.434592 143.780185 
L 148.647989 143.89351 
L 159.861386 143.993662 
L 171.074783 144.034882 
L 182.28818 144.108216 
L 193.501577 144.148797 
L 204.714975 144.167782 
L 215.928372 144.191175 
L 227.141769 144.202248 
L 238.355166 144.222762 
L 249.568563 144.245971 
L 260.78196 144.269327 
" clip-path="url(#p3479daee0d)" style="fill: none; stroke: #0072b2; stroke-width: 1.15; stroke-linecap: square"/>
   </g>
   <g id="line2d_32">
    <path d="M 47.727415 137.822173 
L 58.940812 141.924947 
L 70.154209 142.971002 
L 81.367606 143.411248 
L 92.581003 143.618544 
L 103.7944 143.788505 
L 115.007798 143.905809 
L 126.221195 143.900823 
L 137.434592 143.96549 
L 148.647989 144.032616 
L 159.861386 144.112847 
L 171.074783 144.136987 
L 182.28818 144.197194 
L 193.501577 144.230119 
L 204.714975 144.237978 
L 215.928372 144.257575 
L 227.141769 144.262143 
L 238.355166 144.273779 
L 249.568563 144.290441 
L 260.78196 144.312227 
" clip-path="url(#p3479daee0d)" style="fill: none; stroke: #009e73; stroke-width: 1.15; stroke-linecap: square"/>
   </g>
   <g id="line2d_33">
    <path d="M 37.074688 35.845385 
L 271.434688 35.845385 
" clip-path="url(#p3479daee0d)" style="fill: none; stroke-dasharray: 0.7,1.155; stroke-dashoffset: 0; stroke: #111111; stroke-width: 0.7"/>
   </g>
   <g id="line2d_34">
    <path d="M 37.074688 144.52752 
L 271.434688 144.52752 
" clip-path="url(#p3479daee0d)" style="fill: none; stroke-dasharray: 2.59,1.12; stroke-dashoffset: 0; stroke: #374151; stroke-width: 0.7"/>
   </g>
   <g id="patch_3">
    <path d="M 37.074688 162.432 
L 37.074688 7.2 
" style="fill: none; stroke: #000000; stroke-width: 0.8; stroke-linejoin: miter; stroke-linecap: square"/>
   </g>
   <g id="patch_4">
    <path d="M 37.074688 162.432 
L 271.434688 162.432 
" style="fill: none; stroke: #000000; stroke-width: 0.8; stroke-linejoin: miter; stroke-linecap: square"/>
   </g>
   <g id="legend_1">
    <g id="line2d_35">
     <path d="M 106.644844 16.368906 
L 113.644844 16.368906 
L 120.644844 16.368906 
" style="fill: none; stroke: #6b7280; stroke-width: 1.15; stroke-linecap: square"/>
    </g>
    <g id="text_18">
     <text style="font-size: 7px; font-family: 'DejaVu Sans', 'Bitstream Vera Sans', 'Computer Modern Sans Serif', 'Lucida Grande', 'Verdana', 'Geneva', 'Lucid', 'Arial', 'Helvetica', 'Avant Garde', sans-serif; text-anchor: start" x="126.244844" y="18.818906" transform="rotate(-0 126.244844 18.818906)">Repair only</text>
    </g>
    <g id="line2d_36">
     <path d="M 106.644844 26.643594 
L 113.644844 26.643594 
L 120.644844 26.643594 
" style="fill: none; stroke: #dc2626; stroke-width: 1.15; stroke-linecap: square"/>
    </g>
    <g id="text_19">
     <text style="font-size: 7px; font-family: 'DejaVu Sans', 'Bitstream Vera Sans', 'Computer Modern Sans Serif', 'Lucida Grande', 'Verdana', 'Geneva', 'Lucid', 'Arial', 'Helvetica', 'Avant Garde', sans-serif; text-anchor: start" x="126.244844" y="29.093594" transform="rotate(-0 126.244844 29.093594)">Frequency only</text>
    </g>
    <g id="line2d_37">
     <path d="M 106.644844 36.918281 
L 113.644844 36.918281 
L 120.644844 36.918281 
" style="fill: none; stroke: #9ca3af; stroke-width: 1.15; stroke-linecap: square"/>
    </g>
    <g id="text_20">
     <text style="font-size: 7px; font-family: 'DejaVu Sans', 'Bitstream Vera Sans', 'Computer Modern Sans Serif', 'Lucida Grande', 'Verdana', 'Geneva', 'Lucid', 'Arial', 'Helvetica', 'Avant Garde', sans-serif; text-anchor: start" x="126.244844" y="39.368281" transform="rotate(-0 126.244844 39.368281)">Additive logistic</text>
    </g>
    <g id="line2d_38">
     <path d="M 106.644844 47.192969 
L 113.644844 47.192969 
L 120.644844 47.192969 
" style="fill: none; stroke: #e69f00; stroke-width: 1.15; stroke-linecap: square"/>
    </g>
    <g id="text_21">
     <text style="font-size: 7px; font-family: 'DejaVu Sans', 'Bitstream Vera Sans', 'Computer Modern Sans Serif', 'Lucida Grande', 'Verdana', 'Geneva', 'Lucid', 'Arial', 'Helvetica', 'Avant Garde', sans-serif; text-anchor: start" x="126.244844" y="49.642969" transform="rotate(-0 126.244844 49.642969)">Crossed logistic</text>
    </g>
    <g id="line2d_39">
     <path d="M 106.644844 57.467656 
L 113.644844 57.467656 
L 120.644844 57.467656 
" style="fill: none; stroke: #8b5cf6; stroke-width: 1.15; stroke-linecap: square"/>
    </g>
    <g id="text_22">
     <text style="font-size: 7px; font-family: 'DejaVu Sans', 'Bitstream Vera Sans', 'Computer Modern Sans Serif', 'Lucida Grande', 'Verdana', 'Geneva', 'Lucid', 'Arial', 'Helvetica', 'Avant Garde', sans-serif; text-anchor: start" x="126.244844" y="59.917656" transform="rotate(-0 126.244844 59.917656)">Cache-500</text>
    </g>
    <g id="line2d_40">
     <path d="M 195.907969 16.368906 
L 202.907969 16.368906 
L 209.907969 16.368906 
" style="fill: none; stroke: #56b4e9; stroke-width: 1.15; stroke-linecap: square"/>
    </g>
    <g id="text_23">
     <text style="font-size: 7px; font-family: 'DejaVu Sans', 'Bitstream Vera Sans', 'Computer Modern Sans Serif', 'Lucida Grande', 'Verdana', 'Geneva', 'Lucid', 'Arial', 'Helvetica', 'Avant Garde', sans-serif; text-anchor: start" x="215.507969" y="18.818906" transform="rotate(-0 215.507969 18.818906)">Local stump</text>
    </g>
    <g id="line2d_41">
     <path d="M 195.907969 26.643594 
L 202.907969 26.643594 
L 209.907969 26.643594 
" style="fill: none; stroke: #0072b2; stroke-width: 1.15; stroke-linecap: square"/>
    </g>
    <g id="text_24">
     <text style="font-size: 7px; font-family: 'DejaVu Sans', 'Bitstream Vera Sans', 'Computer Modern Sans Serif', 'Lucida Grande', 'Verdana', 'Geneva', 'Lucid', 'Arial', 'Helvetica', 'Avant Garde', sans-serif; text-anchor: start" x="215.507969" y="29.093594" transform="rotate(-0 215.507969 29.093594)">DGM-HQS</text>
    </g>
    <g id="line2d_42">
     <path d="M 195.907969 36.918281 
L 202.907969 36.918281 
L 209.907969 36.918281 
" style="fill: none; stroke: #009e73; stroke-width: 1.15; stroke-linecap: square"/>
    </g>
    <g id="text_25">
     <text style="font-size: 7px; font-family: 'DejaVu Sans', 'Bitstream Vera Sans', 'Computer Modern Sans Serif', 'Lucida Grande', 'Verdana', 'Geneva', 'Lucid', 'Arial', 'Helvetica', 'Avant Garde', sans-serif; text-anchor: start" x="215.507969" y="39.368281" transform="rotate(-0 215.507969 39.368281)">Oracle refined</text>
    </g>
    <g id="line2d_43">
     <path d="M 195.907969 47.194063 
L 202.907969 47.194063 
L 209.907969 47.194063 
" style="fill: none; stroke-dasharray: 0.7,1.155; stroke-dashoffset: 0; stroke: #111111; stroke-width: 0.7"/>
    </g>
    <g id="text_26">
     <!-- $\log 2$ -->
     <g transform="translate(215.507969 49.644063)">
      <text>
       <tspan x="0" y="-0.6875" style="font-size: 7px; font-family: 'DejaVu Sans'">l</tspan>
       <tspan x="1.944824" y="-0.6875" style="font-size: 7px; font-family: 'DejaVu Sans'">o</tspan>
       <tspan x="6.227539" y="-0.6875" style="font-size: 7px; font-family: 'DejaVu Sans'">g</tspan>
       <tspan x="11.807396" y="-0.6875" style="font-size: 7px; font-family: 'DejaVu Sans'">2</tspan>
      </text>
     </g>
    </g>
    <g id="line2d_44">
     <path d="M 195.907969 57.484063 
L 202.907969 57.484063 
L 209.907969 57.484063 
" style="fill: none; stroke-dasharray: 2.59,1.12; stroke-dashoffset: 0; stroke: #374151; stroke-width: 0.7"/>
    </g>
    <g id="text_27">
     <!-- $H(\eta)$ -->
     <g transform="translate(215.507969 59.934063)">
      <text>
       <tspan x="0" y="-0.6875" style="font-style: oblique; font-size: 7px; font-family: 'DejaVu Sans'">H</tspan>
       <tspan x="7.994629" y="-0.6875" style="font-style: oblique; font-size: 7px; font-family: 'DejaVu Sans'">η</tspan>
       <tspan x="5.263672" y="-0.6875" style="font-size: 7px; font-family: 'DejaVu Sans'">(</tspan>
       <tspan x="12.431152" y="-0.6875" style="font-size: 7px; font-family: 'DejaVu Sans'">)</tspan>
      </text>
     </g>
    </g>
   </g>
  </g>
 </g>
 <defs>
  <clipPath id="p3479daee0d">
   <rect x="37.074688" y="7.2" width="234.36" height="155.232"/>
  </clipPath>
 </defs>
</svg>
