<?xml version="1.0" encoding="utf-8" standalone="no"?>
<!DOCTYPE svg PUBLIC "-//W3C//DTD SVG 1.1//EN"
  "http://www.w3.org/Graphics/SVG/1.1/DTD/svg11.dtd">
<svg xmlns:xlink="http://www.w3.org/1999/xlink" width="279.116335pt" height="195.149187pt" viewBox="0 0 279.116335 195.149187" xmlns="http://www.w3.org/2000/svg" version="1.1">
 <metadata>
  <rdf:RDF xmlns:dc="http://purl.org/dc/elements/1.1/" xmlns:cc="http://creativecommons.org/ns#" xmlns:rdf="http://www.w3.org/1999/02/22-rdf-syntax-ns#">
   <cc:Work>
    <dc:type rdf:resource="http://purl.org/dc/dcmitype/StillImage"/>
    <dc:date>2026-05-01T23:58:21.326937</dc:date>
    <dc:format>image/svg+xml</dc:format>
    <dc:creator>
     <cc:Agent>
      <dc:title>Matplotlib v3.10.6, https://matplotlib.org/</dc:title>
     </cc:Agent>
    </dc:creator>
   </cc:Work>
  </rdf:RDF>
 </metadata>
 <defs>
  <style type="text/css">*{stroke-linejoin: round; stroke-linecap: butt}</style>
 </defs>
 <g id="figure_1">
  <g id="patch_1">
   <path d="M 0 195.149187 
L 279.116335 195.149187 
L 279.116335 0 
L 0 0 
z
" style="fill: #ffffff"/>
  </g>
  <g id="axes_1">
   <g id="patch_2">
    <path d="M 37.074688 162.432 
L 271.434688 162.432 
L 271.434688 7.2 
L 37.074688 7.2 
z
" style="fill: #ffffff"/>
   </g>
   <g id="FillBetweenPolyCollection_1">
    <defs>
     <path id="m568e8ed458" d="M 47.727415 -162.914645 
L 47.727415 -161.938936 
L 58.940812 -160.587557 
L 70.154209 -160.100496 
L 81.367606 -160.043062 
L 92.581003 -159.878651 
L 103.7944 -159.782915 
L 115.007798 -159.706565 
L 126.221195 -159.746436 
L 137.434592 -159.68724 
L 148.647989 -159.649892 
L 159.861386 -159.620023 
L 171.074783 -159.593558 
L 182.28818 -159.550713 
L 193.501577 -159.524358 
L 204.714975 -159.501077 
L 215.928372 -159.473276 
L 227.141769 -159.466883 
L 238.355166 -159.462979 
L 249.568563 -159.447053 
L 260.78196 -159.42661 
L 260.78196 -159.538426 
L 260.78196 -159.538426 
L 249.568563 -159.532622 
L 238.355166 -159.543191 
L 227.141769 -159.559152 
L 215.928372 -159.570346 
L 204.714975 -159.586436 
L 193.501577 -159.622578 
L 182.28818 -159.62663 
L 171.074783 -159.672964 
L 159.861386 -159.72066 
L 148.647989 -159.811477 
L 137.434592 -159.842479 
L 126.221195 -159.901605 
L 115.007798 -159.912607 
L 103.7944 -159.989893 
L 92.581003 -160.13732 
L 81.367606 -160.35613 
L 70.154209 -160.60922 
L 58.940812 -161.100505 
L 47.727415 -162.914645 
z
"/>
    </defs>
    <g clip-path="url(#p2a36074cf2)">
     <use xlink:href="#m568e8ed458" x="0" y="195.149187" style="fill: #6b7280; fill-opacity: 0.1"/>
    </g>
   </g>
   <g id="FillBetweenPolyCollection_2">
    <defs>
     <path id="m9bc66786bc" d="M 47.727415 -163.640123 
L 47.727415 -162.302532 
L 58.940812 -160.991959 
L 70.154209 -160.612345 
L 81.367606 -160.614189 
L 92.581003 -160.192096 
L 103.7944 -160.14265 
L 115.007798 -160.003427 
L 126.221195 -160.153245 
L 137.434592 -159.906937 
L 148.647989 -159.925774 
L 159.861386 -159.938523 
L 171.074783 -159.885394 
L 182.28818 -159.720827 
L 193.501577 -159.87401 
L 204.714975 -159.679848 
L 215.928372 -159.621364 
L 227.141769 -159.683186 
L 238.355166 -159.693224 
L 249.568563 -159.666805 
L 260.78196 -159.745613 
L 260.78196 -160.083234 
L 260.78196 -160.083234 
L 249.568563 -159.934878 
L 238.355166 -159.94485 
L 227.141769 -159.965188 
L 215.928372 -160.037996 
L 204.714975 -160.082412 
L 193.501577 -160.085344 
L 182.28818 -160.147224 
L 171.074783 -160.347664 
L 159.861386 -160.213004 
L 148.647989 -160.369113 
L 137.434592 -160.521766 
L 126.221195 -160.605613 
L 115.007798 -160.517404 
L 103.7944 -160.51633 
L 92.581003 -160.902908 
L 81.367606 -160.869459 
L 70.154209 -161.720554 
L 58.940812 -161.861327 
L 47.727415 -163.640123 
z
"/>
    </defs>
    <g clip-path="url(#p2a36074cf2)">
     <use xlink:href="#m9bc66786bc" x="0" y="195.149187" style="fill: #9ca3af; fill-opacity: 0.1"/>
    </g>
   </g>
   <g id="FillBetweenPolyCollection_3">
    <defs>
     <path id="m630564627b" d="M 47.727415 -93.719668 
L 47.727415 -92.376987 
L 58.940812 -80.357333 
L 70.154209 -73.373429 
L 81.367606 -68.522623 
L 92.581003 -65.186784 
L 103.7944 -62.715329 
L 115.007798 -60.797446 
L 126.221195 -59.344592 
L 137.434592 -58.146341 
L 148.647989 -57.213299 
L 159.861386 -56.412579 
L 171.074783 -55.735948 
L 182.28818 -55.187555 
L 193.501577 -54.694608 
L 204.714975 -54.313122 
L 215.928372 -53.973156 
L 227.141769 -53.647919 
L 238.355166 -53.332362 
L 249.568563 -53.108226 
L 260.78196 -52.879644 
L 260.78196 -54.630136 
L 260.78196 -54.630136 
L 249.568563 -54.848655 
L 238.355166 -55.067728 
L 227.141769 -55.316954 
L 215.928372 -55.566646 
L 204.714975 -55.9097 
L 193.501577 -56.351869 
L 182.28818 -56.837025 
L 171.074783 -57.475929 
L 159.861386 -58.136347 
L 148.647989 -58.916983 
L 137.434592 -59.854757 
L 126.221195 -60.939608 
L 115.007798 -62.407408 
L 103.7944 -64.392308 
L 92.581003 -66.840726 
L 81.367606 -70.310979 
L 70.154209 -75.155053 
L 58.940812 -82.535774 
L 47.727415 -93.719668 
z
"/>
    </defs>
    <g clip-path="url(#p2a36074cf2)">
     <use xlink:href="#m630564627b" x="0" y="195.149187" style="fill: #d55e00; fill-opacity: 0.1"/>
    </g>
   </g>
   <g id="FillBetweenPolyCollection_4">
    <defs>
     <path id="ma0e57dc811" d="M 47.727415 -76.189836 
L 47.727415 -74.526803 
L 58.940812 -62.398503 
L 70.154209 -57.488376 
L 81.367606 -54.842752 
L 92.581003 -53.471578 
L 103.7944 -52.594328 
L 115.007798 -51.953 
L 126.221195 -51.587297 
L 137.434592 -51.261777 
L 148.647989 -51.012763 
L 159.861386 -50.8554 
L 171.074783 -50.691338 
L 182.28818 -50.587205 
L 193.501577 -50.516826 
L 204.714975 -50.415336 
L 215.928372 -50.352757 
L 227.141769 -50.271258 
L 238.355166 -50.187437 
L 249.568563 -50.213671 
L 260.78196 -50.146287 
L 260.78196 -52.052916 
L 260.78196 -52.052916 
L 249.568563 -52.065707 
L 238.355166 -52.05555 
L 227.141769 -52.045599 
L 215.928372 -52.034743 
L 204.714975 -52.083892 
L 193.501577 -52.172283 
L 182.28818 -52.278732 
L 171.074783 -52.434456 
L 159.861386 -52.581161 
L 148.647989 -52.684334 
L 137.434592 -52.884871 
L 126.221195 -53.135948 
L 115.007798 -53.505862 
L 103.7944 -54.174941 
L 92.581003 -54.943135 
L 81.367606 -56.371192 
L 70.154209 -58.987395 
L 58.940812 -64.327029 
L 47.727415 -76.189836 
z
"/>
    </defs>
    <g clip-path="url(#p2a36074cf2)">
     <use xlink:href="#ma0e57dc811" x="0" y="195.149187" style="fill: #e69f00; fill-opacity: 0.1"/>
    </g>
   </g>
   <g id="FillBetweenPolyCollection_5">
    <defs>
     <path id="m6fd14221f6" d="M 47.727415 -128.949864 
L 47.727415 -121.610304 
L 58.940812 -123.341465 
L 70.154209 -119.154037 
L 81.367606 -121.211424 
L 92.581003 -123.529635 
L 103.7944 -120.718633 
L 115.007798 -122.803188 
L 126.221195 -120.652934 
L 137.434592 -121.295505 
L 148.647989 -121.326708 
L 159.861386 -122.08127 
L 171.074783 -122.123661 
L 182.28818 -119.598391 
L 193.501577 -121.001866 
L 204.714975 -119.577679 
L 215.928372 -122.223702 
L 227.141769 -121.939886 
L 238.355166 -122.761176 
L 249.568563 -120.611817 
L 260.78196 -122.759216 
L 260.78196 -127.862945 
L 260.78196 -127.862945 
L 249.568563 -123.174295 
L 238.355166 -126.156145 
L 227.141769 -125.620222 
L 215.928372 -126.846972 
L 204.714975 -126.381909 
L 193.501577 -124.689856 
L 182.28818 -123.532927 
L 171.074783 -125.845596 
L 159.861386 -125.775228 
L 148.647989 -126.990706 
L 137.434592 -126.711602 
L 126.221195 -125.398224 
L 115.007798 -128.37966 
L 103.7944 -125.135377 
L 92.581003 -127.330939 
L 81.367606 -124.636393 
L 70.154209 -124.575708 
L 58.940812 -127.974665 
L 47.727415 -128.949864 
z
"/>
    </defs>
    <g clip-path="url(#p2a36074cf2)">
     <use xlink:href="#m6fd14221f6" x="0" y="195.149187" style="fill: #8b5cf6; fill-opacity: 0.1"/>
    </g>
   </g>
   <g id="FillBetweenPolyCollection_6">
    <defs>
     <path id="m0c0ed7aa7b" d="M 47.727415 -162.914645 
L 47.727415 -161.938936 
L 58.940812 -160.587557 
L 70.154209 -160.100496 
L 81.367606 -132.604717 
L 92.581003 -54.907072 
L 103.7944 -51.16171 
L 115.007798 -50.795176 
L 126.221195 -50.623311 
L 137.434592 -50.427276 
L 148.647989 -50.301536 
L 159.861386 -50.231148 
L 171.074783 -50.167945 
L 182.28818 -50.147443 
L 193.501577 -50.116735 
L 204.714975 -50.084237 
L 215.928372 -50.054428 
L 227.141769 -50.011354 
L 238.355166 -49.970414 
L 249.568563 -49.982291 
L 260.78196 -49.941869 
L 260.78196 -51.678558 
L 260.78196 -51.678558 
L 249.568563 -51.706173 
L 238.355166 -51.720227 
L 227.141769 -51.722516 
L 215.928372 -51.725314 
L 204.714975 -51.763282 
L 193.501577 -51.848795 
L 182.28818 -51.896414 
L 171.074783 -51.949766 
L 159.861386 -52.012808 
L 148.647989 -52.032355 
L 137.434592 -52.149073 
L 126.221195 -52.266437 
L 115.007798 -52.409099 
L 103.7944 -52.734051 
L 92.581003 -56.461864 
L 81.367606 -136.839271 
L 70.154209 -160.60922 
L 58.940812 -161.100505 
L 47.727415 -162.914645 
z
"/>
    </defs>
    <g clip-path="url(#p2a36074cf2)">
     <use xlink:href="#m0c0ed7aa7b" x="0" y="195.149187" style="fill: #0072b2; fill-opacity: 0.1"/>
    </g>
   </g>
   <g id="FillBetweenPolyCollection_7">
    <defs>
     <path id="m8ea4e8730e" d="M 47.727415 -57.766003 
L 47.727415 -56.857444 
L 58.940812 -52.591981 
L 70.154209 -51.498478 
L 81.367606 -50.8576 
L 92.581003 -50.632913 
L 103.7944 -50.503315 
L 115.007798 -50.353627 
L 126.221195 -50.303022 
L 137.434592 -50.185625 
L 148.647989 -50.114854 
L 159.861386 -50.079644 
L 171.074783 -50.024792 
L 182.28818 -50.021118 
L 193.501577 -50.011148 
L 204.714975 -49.990276 
L 215.928372 -49.966712 
L 227.141769 -49.935484 
L 238.355166 -49.905206 
L 249.568563 -49.915292 
L 260.78196 -49.886143 
L 260.78196 -51.617836 
L 260.78196 -51.617836 
L 249.568563 -51.637656 
L 238.355166 -51.639521 
L 227.141769 -51.640137 
L 215.928372 -51.634409 
L 204.714975 -51.656094 
L 193.501577 -51.713338 
L 182.28818 -51.734743 
L 171.074783 -51.772396 
L 159.861386 -51.807949 
L 148.647989 -51.801768 
L 137.434592 -51.862987 
L 126.221195 -51.935355 
L 115.007798 -51.985951 
L 103.7944 -52.152878 
L 92.581003 -52.21703 
L 81.367606 -52.50466 
L 70.154209 -52.990751 
L 58.940812 -54.156659 
L 47.727415 -57.766003 
z
"/>
    </defs>
    <g clip-path="url(#p2a36074cf2)">
     <use xlink:href="#m8ea4e8730e" x="0" y="195.149187" style="fill: #009e73; fill-opacity: 0.1"/>
    </g>
   </g>
   <g id="matplotlib.axis_1">
    <g id="xtick_1">
     <g id="line2d_1">
      <defs>
       <path id="m0d3660bbba" d="M 0 0 
L 0 3.5 
" style="stroke: #000000; stroke-width: 0.8"/>
      </defs>
      <g>
       <use xlink:href="#m0d3660bbba" x="73.892008" y="162.432" style="stroke: #000000; stroke-width: 0.8"/>
      </g>
     </g>
     <g id="text_1">
      <text style="font-size: 7px; font-family: 'DejaVu Sans', 'Bitstream Vera Sans', 'Computer Modern Sans Serif', 'Lucida Grande', 'Verdana', 'Geneva', 'Lucid', 'Arial', 'Helvetica', 'Avant Garde', sans-serif; text-anchor: middle" x="73.892008" y="174.750906" transform="rotate(-0 73.892008 174.750906)">10000</text>
     </g>
    </g>
    <g id="xtick_2">
     <g id="line2d_2">
      <g>
       <use xlink:href="#m0d3660bbba" x="111.269999" y="162.432" style="stroke: #000000; stroke-width: 0.8"/>
      </g>
     </g>
     <g id="text_2">
      <text style="font-size: 7px; font-family: 'DejaVu Sans', 'Bitstream Vera Sans', 'Computer Modern Sans Serif', 'Lucida Grande', 'Verdana', 'Geneva', 'Lucid', 'Arial', 'Helvetica', 'Avant Garde', sans-serif; text-anchor: middle" x="111.269999" y="174.750906" transform="rotate(-0 111.269999 174.750906)">20000</text>
     </g>
    </g>
    <g id="xtick_3">
     <g id="line2d_3">
      <g>
       <use xlink:href="#m0d3660bbba" x="148.647989" y="162.432" style="stroke: #000000; stroke-width: 0.8"/>
      </g>
     </g>
     <g id="text_3">
      <text style="font-size: 7px; font-family: 'DejaVu Sans', 'Bitstream Vera Sans', 'Computer Modern Sans Serif', 'Lucida Grande', 'Verdana', 'Geneva', 'Lucid', 'Arial', 'Helvetica', 'Avant Garde', sans-serif; text-anchor: middle" x="148.647989" y="174.750906" transform="rotate(-0 148.647989 174.750906)">30000</text>
     </g>
    </g>
    <g id="xtick_4">
     <g id="line2d_4">
      <g>
       <use xlink:href="#m0d3660bbba" x="186.025979" y="162.432" style="stroke: #000000; stroke-width: 0.8"/>
      </g>
     </g>
     <g id="text_4">
      <text style="font-size: 7px; font-family: 'DejaVu Sans', 'Bitstream Vera Sans', 'Computer Modern Sans Serif', 'Lucida Grande', 'Verdana', 'Geneva', 'Lucid', 'Arial', 'Helvetica', 'Avant Garde', sans-serif; text-anchor: middle" x="186.025979" y="174.750906" transform="rotate(-0 186.025979 174.750906)">40000</text>
     </g>
    </g>
    <g id="xtick_5">
     <g id="line2d_5">
      <g>
       <use xlink:href="#m0d3660bbba" x="223.40397" y="162.432" style="stroke: #000000; stroke-width: 0.8"/>
      </g>
     </g>
     <g id="text_5">
      <text style="font-size: 7px; font-family: 'DejaVu Sans', 'Bitstream Vera Sans', 'Computer Modern Sans Serif', 'Lucida Grande', 'Verdana', 'Geneva', 'Lucid', 'Arial', 'Helvetica', 'Avant Garde', sans-serif; text-anchor: middle" x="223.40397" y="174.750906" transform="rotate(-0 223.40397 174.750906)">50000</text>
     </g>
    </g>
    <g id="xtick_6">
     <g id="line2d_6">
      <g>
       <use xlink:href="#m0d3660bbba" x="260.78196" y="162.432" style="stroke: #000000; stroke-width: 0.8"/>
      </g>
     </g>
     <g id="text_6">
      <text style="font-size: 7px; font-family: 'DejaVu Sans', 'Bitstream Vera Sans', 'Computer Modern Sans Serif', 'Lucida Grande', 'Verdana', 'Geneva', 'Lucid', 'Arial', 'Helvetica', 'Avant Garde', sans-serif; text-anchor: middle" x="260.78196" y="174.750906" transform="rotate(-0 260.78196 174.750906)">60000</text>
     </g>
    </g>
    <g id="text_7">
     <text style="font-size: 8px; font-family: 'DejaVu Sans', 'Bitstream Vera Sans', 'Computer Modern Sans Serif', 'Lucida Grande', 'Verdana', 'Geneva', 'Lucid', 'Arial', 'Helvetica', 'Avant Garde', sans-serif; text-anchor: middle" x="154.254688" y="186.285437" transform="rotate(-0 154.254688 186.285437)">Online steps</text>
    </g>
   </g>
   <g id="matplotlib.axis_2">
    <g id="ytick_1">
     <g id="line2d_7">
      <path d="M 37.074688 162.432 
L 271.434688 162.432 
" clip-path="url(#p2a36074cf2)" style="fill: none; stroke: #e5e7eb; stroke-width: 0.6; stroke-linecap: square"/>
     </g>
     <g id="line2d_8">
      <defs>
       <path id="mfc37baa4f4" d="M 0 0 
L -3.5 0 
" style="stroke: #000000; stroke-width: 0.8"/>
      </defs>
      <g>
       <use xlink:href="#mfc37baa4f4" x="37.074688" y="162.432" style="stroke: #000000; stroke-width: 0.8"/>
      </g>
     </g>
     <g id="text_8">
      <text style="font-size: 7px; font-family: 'DejaVu Sans', 'Bitstream Vera Sans', 'Computer Modern Sans Serif', 'Lucida Grande', 'Verdana', 'Geneva', 'Lucid', 'Arial', 'Helvetica', 'Avant Garde', sans-serif; text-anchor: end" x="30.074688" y="165.091453" transform="rotate(-0 30.074688 165.091453)">0.0</text>
     </g>
    </g>
    <g id="ytick_2">
     <g id="line2d_9">
      <path d="M 37.074688 144.169412 
L 271.434688 144.169412 
" clip-path="url(#p2a36074cf2)" style="fill: none; stroke: #e5e7eb; stroke-width: 0.6; stroke-linecap: square"/>
     </g>
     <g id="line2d_10">
      <g>
       <use xlink:href="#mfc37baa4f4" x="37.074688" y="144.169412" style="stroke: #000000; stroke-width: 0.8"/>
      </g>
     </g>
     <g id="text_9">
      <text style="font-size: 7px; font-family: 'DejaVu Sans', 'Bitstream Vera Sans', 'Computer Modern Sans Serif', 'Lucida Grande', 'Verdana', 'Geneva', 'Lucid', 'Arial', 'Helvetica', 'Avant Garde', sans-serif; text-anchor: end" x="30.074688" y="146.828865" transform="rotate(-0 30.074688 146.828865)">0.1</text>
     </g>
    </g>
    <g id="ytick_3">
     <g id="line2d_11">
      <path d="M 37.074688 125.906824 
L 271.434688 125.906824 
" clip-path="url(#p2a36074cf2)" style="fill: none; stroke: #e5e7eb; stroke-width: 0.6; stroke-linecap: square"/>
     </g>
     <g id="line2d_12">
      <g>
       <use xlink:href="#mfc37baa4f4" x="37.074688" y="125.906824" style="stroke: #000000; stroke-width: 0.8"/>
      </g>
     </g>
     <g id="text_10">
      <text style="font-size: 7px; font-family: 'DejaVu Sans', 'Bitstream Vera Sans', 'Computer Modern Sans Serif', 'Lucida Grande', 'Verdana', 'Geneva', 'Lucid', 'Arial', 'Helvetica', 'Avant Garde', sans-serif; text-anchor: end" x="30.074688" y="128.566277" transform="rotate(-0 30.074688 128.566277)">0.2</text>
     </g>
    </g>
    <g id="ytick_4">
     <g id="line2d_13">
      <path d="M 37.074688 107.644235 
L 271.434688 107.644235 
" clip-path="url(#p2a36074cf2)" style="fill: none; stroke: #e5e7eb; stroke-width: 0.6; stroke-linecap: square"/>
     </g>
     <g id="line2d_14">
      <g>
       <use xlink:href="#mfc37baa4f4" x="37.074688" y="107.644235" style="stroke: #000000; stroke-width: 0.8"/>
      </g>
     </g>
     <g id="text_11">
      <text style="font-size: 7px; font-family: 'DejaVu Sans', 'Bitstream Vera Sans', 'Computer Modern Sans Serif', 'Lucida Grande', 'Verdana', 'Geneva', 'Lucid', 'Arial', 'Helvetica', 'Avant Garde', sans-serif; text-anchor: end" x="30.074688" y="110.303688" transform="rotate(-0 30.074688 110.303688)">0.3</text>
     </g>
    </g>
    <g id="ytick_5">
     <g id="line2d_15">
      <path d="M 37.074688 89.381647 
L 271.434688 89.381647 
" clip-path="url(#p2a36074cf2)" style="fill: none; stroke: #e5e7eb; stroke-width: 0.6; stroke-linecap: square"/>
     </g>
     <g id="line2d_16">
      <g>
       <use xlink:href="#mfc37baa4f4" x="37.074688" y="89.381647" style="stroke: #000000; stroke-width: 0.8"/>
      </g>
     </g>
     <g id="text_12">
      <text style="font-size: 7px; font-family: 'DejaVu Sans', 'Bitstream Vera Sans', 'Computer Modern Sans Serif', 'Lucida Grande', 'Verdana', 'Geneva', 'Lucid', 'Arial', 'Helvetica', 'Avant Garde', sans-serif; text-anchor: end" x="30.074688" y="92.0411" transform="rotate(-0 30.074688 92.0411)">0.4</text>
     </g>
    </g>
    <g id="ytick_6">
     <g id="line2d_17">
      <path d="M 37.074688 71.119059 
L 271.434688 71.119059 
" clip-path="url(#p2a36074cf2)" style="fill: none; stroke: #e5e7eb; stroke-width: 0.6; stroke-linecap: square"/>
     </g>
     <g id="line2d_18">
      <g>
       <use xlink:href="#mfc37baa4f4" x="37.074688" y="71.119059" style="stroke: #000000; stroke-width: 0.8"/>
      </g>
     </g>
     <g id="text_13">
      <text style="font-size: 7px; font-family: 'DejaVu Sans', 'Bitstream Vera Sans', 'Computer Modern Sans Serif', 'Lucida Grande', 'Verdana', 'Geneva', 'Lucid', 'Arial', 'Helvetica', 'Avant Garde', sans-serif; text-anchor: end" x="30.074688" y="73.778512" transform="rotate(-0 30.074688 73.778512)">0.5</text>
     </g>
    </g>
    <g id="ytick_7">
     <g id="line2d_19">
      <path d="M 37.074688 52.856471 
L 271.434688 52.856471 
" clip-path="url(#p2a36074cf2)" style="fill: none; stroke: #e5e7eb; stroke-width: 0.6; stroke-linecap: square"/>
     </g>
     <g id="line2d_20">
      <g>
       <use xlink:href="#mfc37baa4f4" x="37.074688" y="52.856471" style="stroke: #000000; stroke-width: 0.8"/>
      </g>
     </g>
     <g id="text_14">
      <text style="font-size: 7px; font-family: 'DejaVu Sans', 'Bitstream Vera Sans', 'Computer Modern Sans Serif', 'Lucida Grande', 'Verdana', 'Geneva', 'Lucid', 'Arial', 'Helvetica', 'Avant Garde', sans-serif; text-anchor: end" x="30.074688" y="55.515924" transform="rotate(-0 30.074688 55.515924)">0.6</text>
     </g>
    </g>
    <g id="ytick_8">
     <g id="line2d_21">
      <path d="M 37.074688 34.593882 
L 271.434688 34.593882 
" clip-path="url(#p2a36074cf2)" style="fill: none; stroke: #e5e7eb; stroke-width: 0.6; stroke-linecap: square"/>
     </g>
     <g id="line2d_22">
      <g>
       <use xlink:href="#mfc37baa4f4" x="37.074688" y="34.593882" style="stroke: #000000; stroke-width: 0.8"/>
      </g>
     </g>
     <g id="text_15">
      <text style="font-size: 7px; font-family: 'DejaVu Sans', 'Bitstream Vera Sans', 'Computer Modern Sans Serif', 'Lucida Grande', 'Verdana', 'Geneva', 'Lucid', 'Arial', 'Helvetica', 'Avant Garde', sans-serif; text-anchor: end" x="30.074688" y="37.253335" transform="rotate(-0 30.074688 37.253335)">0.7</text>
     </g>
    </g>
    <g id="ytick_9">
     <g id="line2d_23">
      <path d="M 37.074688 16.331294 
L 271.434688 16.331294 
" clip-path="url(#p2a36074cf2)" style="fill: none; stroke: #e5e7eb; stroke-width: 0.6; stroke-linecap: square"/>
     </g>
     <g id="line2d_24">
      <g>
       <use xlink:href="#mfc37baa4f4" x="37.074688" y="16.331294" style="stroke: #000000; stroke-width: 0.8"/>
      </g>
     </g>
     <g id="text_16">
      <text style="font-size: 7px; font-family: 'DejaVu Sans', 'Bitstream Vera Sans', 'Computer Modern Sans Serif', 'Lucida Grande', 'Verdana', 'Geneva', 'Lucid', 'Arial', 'Helvetica', 'Avant Garde', sans-serif; text-anchor: end" x="30.074688" y="18.990747" transform="rotate(-0 30.074688 18.990747)">0.8</text>
     </g>
    </g>
    <g id="text_17">
     <text style="font-size: 8px; font-family: 'DejaVu Sans', 'Bitstream Vera Sans', 'Computer Modern Sans Serif', 'Lucida Grande', 'Verdana', 'Geneva', 'Lucid', 'Arial', 'Helvetica', 'Avant Garde', sans-serif; text-anchor: middle" x="13.27875" y="84.816" transform="rotate(-90 13.27875 84.816)">Held-out NLL</text>
    </g>
   </g>
   <g id="line2d_25">
    <path d="M 47.727415 32.722397 
L 58.940812 34.305156 
L 70.154209 34.79433 
L 81.367606 34.949592 
L 92.581003 35.141202 
L 103.7944 35.262784 
L 115.007798 35.339602 
L 126.221195 35.325167 
L 137.434592 35.384328 
L 148.647989 35.418503 
L 159.861386 35.478846 
L 171.074783 35.515926 
L 182.28818 35.560516 
L 193.501577 35.57572 
L 204.714975 35.605431 
L 215.928372 35.627376 
L 227.141769 35.63617 
L 238.355166 35.646103 
L 249.568563 35.65935 
L 260.78196 35.66667 
" clip-path="url(#p2a36074cf2)" style="fill: none; stroke: #6b7280; stroke-width: 1.15; stroke-linecap: square"/>
   </g>
   <g id="line2d_26">
    <path d="M 47.727415 32.17786 
L 58.940812 33.722545 
L 70.154209 33.982738 
L 81.367606 34.407364 
L 92.581003 34.601686 
L 103.7944 34.819697 
L 115.007798 34.888772 
L 126.221195 34.769758 
L 137.434592 34.934836 
L 148.647989 35.001744 
L 159.861386 35.073424 
L 171.074783 35.032658 
L 182.28818 35.215162 
L 193.501577 35.16951 
L 204.714975 35.268057 
L 215.928372 35.319508 
L 227.141769 35.325 
L 238.355166 35.33015 
L 249.568563 35.348346 
L 260.78196 35.234764 
" clip-path="url(#p2a36074cf2)" style="fill: none; stroke: #9ca3af; stroke-width: 1.15; stroke-linecap: square"/>
   </g>
   <g id="line2d_27">
    <path d="M 47.727415 102.10086 
L 58.940812 113.702634 
L 70.154209 120.884946 
L 81.367606 125.732386 
L 92.581003 129.135432 
L 103.7944 131.595369 
L 115.007798 133.54676 
L 126.221195 135.007087 
L 137.434592 136.148638 
L 148.647989 137.084047 
L 159.861386 137.874725 
L 171.074783 138.543249 
L 182.28818 139.136898 
L 193.501577 139.625949 
L 204.714975 140.037777 
L 215.928372 140.379287 
L 227.141769 140.666751 
L 238.355166 140.949142 
L 249.568563 141.170747 
L 260.78196 141.394297 
" clip-path="url(#p2a36074cf2)" style="fill: none; stroke: #d55e00; stroke-width: 1.15; stroke-linecap: square"/>
   </g>
   <g id="line2d_28">
    <path d="M 47.727415 119.790868 
L 58.940812 131.786422 
L 70.154209 136.911302 
L 81.367606 139.542215 
L 92.581003 140.941831 
L 103.7944 141.764553 
L 115.007798 142.419757 
L 126.221195 142.787565 
L 137.434592 143.075863 
L 148.647989 143.300639 
L 159.861386 143.430907 
L 171.074783 143.58629 
L 182.28818 143.716219 
L 193.501577 143.804633 
L 204.714975 143.899573 
L 215.928372 143.955438 
L 227.141769 143.990759 
L 238.355166 144.027694 
L 249.568563 144.009498 
L 260.78196 144.049586 
" clip-path="url(#p2a36074cf2)" style="fill: none; stroke: #e69f00; stroke-width: 1.15; stroke-linecap: square"/>
   </g>
   <g id="line2d_29">
    <path d="M 47.727415 69.869103 
L 58.940812 69.491122 
L 70.154209 73.284315 
L 81.367606 72.225279 
L 92.581003 69.7189 
L 103.7944 72.222183 
L 115.007798 69.557763 
L 126.221195 72.123608 
L 137.434592 71.145634 
L 148.647989 70.990481 
L 159.861386 71.220939 
L 171.074783 71.164559 
L 182.28818 73.583528 
L 193.501577 72.303326 
L 204.714975 72.169394 
L 215.928372 70.613851 
L 227.141769 71.369133 
L 238.355166 70.690527 
L 249.568563 73.256132 
L 260.78196 69.838107 
" clip-path="url(#p2a36074cf2)" style="fill: none; stroke: #8b5cf6; stroke-width: 1.15; stroke-linecap: square"/>
   </g>
   <g id="line2d_30">
    <path d="M 47.727415 32.722397 
L 58.940812 34.305156 
L 70.154209 34.79433 
L 81.367606 60.427193 
L 92.581003 139.464719 
L 103.7944 143.201307 
L 115.007798 143.54705 
L 126.221195 143.704313 
L 137.434592 143.861013 
L 148.647989 143.982242 
L 159.861386 144.027209 
L 171.074783 144.090332 
L 182.28818 144.127259 
L 193.501577 144.166422 
L 204.714975 144.225428 
L 215.928372 144.259317 
L 227.141769 144.282252 
L 238.355166 144.303867 
L 249.568563 144.304956 
L 260.78196 144.338974 
" clip-path="url(#p2a36074cf2)" style="fill: none; stroke: #0072b2; stroke-width: 1.15; stroke-linecap: square"/>
   </g>
   <g id="line2d_31">
    <path d="M 47.727415 137.837464 
L 58.940812 141.774868 
L 70.154209 142.904573 
L 81.367606 143.468057 
L 92.581003 143.724216 
L 103.7944 143.821091 
L 115.007798 143.979399 
L 126.221195 144.029999 
L 137.434592 144.124882 
L 148.647989 144.190877 
L 159.861386 144.205391 
L 171.074783 144.250593 
L 182.28818 144.271257 
L 193.501577 144.286944 
L 204.714975 144.326002 
L 215.928372 144.348627 
L 227.141769 144.361377 
L 238.355166 144.376824 
L 249.568563 144.372714 
L 260.78196 144.397198 
" clip-path="url(#p2a36074cf2)" style="fill: none; stroke: #009e73; stroke-width: 1.15; stroke-linecap: square"/>
   </g>
   <g id="line2d_32">
    <path d="M 37.074688 35.845385 
L 271.434688 35.845385 
" clip-path="url(#p2a36074cf2)" style="fill: none; stroke-dasharray: 0.7,1.155; stroke-dashoffset: 0; stroke: #111111; stroke-width: 0.7"/>
   </g>
   <g id="line2d_33">
    <path d="M 37.074688 144.52752 
L 271.434688 144.52752 
" clip-path="url(#p2a36074cf2)" style="fill: none; stroke-dasharray: 2.59,1.12; stroke-dashoffset: 0; stroke: #374151; stroke-width: 0.7"/>
   </g>
   <g id="patch_3">
    <path d="M 37.074688 162.432 
L 37.074688 7.2 
" style="fill: none; stroke: #000000; stroke-width: 0.8; stroke-linejoin: miter; stroke-linecap: square"/>
   </g>
   <g id="patch_4">
    <path d="M 37.074688 162.432 
L 271.434688 162.432 
" style="fill: none; stroke: #000000; stroke-width: 0.8; stroke-linejoin: miter; stroke-linecap: square"/>
   </g>
   <g id="legend_1">
    <g id="line2d_34">
     <path d="M 106.644844 16.368906 
L 113.644844 16.368906 
L 120.644844 16.368906 
" style="fill: none; stroke: #6b7280; stroke-width: 1.15; stroke-linecap: square"/>
    </g>
    <g id="text_18">
     <text style="font-size: 7px; font-family: 'DejaVu Sans', 'Bitstream Vera Sans', 'Computer Modern Sans Serif', 'Lucida Grande', 'Verdana', 'Geneva', 'Lucid', 'Arial', 'Helvetica', 'Avant Garde', sans-serif; text-anchor: start" x="126.244844" y="18.818906" transform="rotate(-0 126.244844 18.818906)">Repair only</text>
    </g>
    <g id="line2d_35">
     <path d="M 106.644844 26.643594 
L 113.644844 26.643594 
L 120.644844 26.643594 
" style="fill: none; stroke: #9ca3af; stroke-width: 1.15; stroke-linecap: square"/>
    </g>
    <g id="text_19">
     <text style="font-size: 7px; font-family: 'DejaVu Sans', 'Bitstream Vera Sans', 'Computer Modern Sans Serif', 'Lucida Grande', 'Verdana', 'Geneva', 'Lucid', 'Arial', 'Helvetica', 'Avant Garde', sans-serif; text-anchor: start" x="126.244844" y="29.093594" transform="rotate(-0 126.244844 29.093594)">Additive logistic</text>
    </g>
    <g id="line2d_36">
     <path d="M 106.644844 36.918281 
L 113.644844 36.918281 
L 120.644844 36.918281 
" style="fill: none; stroke: #d55e00; stroke-width: 1.15; stroke-linecap: square"/>
    </g>
    <g id="text_20">
     <text style="font-size: 7px; font-family: 'DejaVu Sans', 'Bitstream Vera Sans', 'Computer Modern Sans Serif', 'Lucida Grande', 'Verdana', 'Geneva', 'Lucid', 'Arial', 'Helvetica', 'Avant Garde', sans-serif; text-anchor: start" x="126.244844" y="39.368281" transform="rotate(-0 126.244844 39.368281)">Cross-product</text>
    </g>
    <g id="line2d_37">
     <path d="M 106.644844 47.192969 
L 113.644844 47.192969 
L 120.644844 47.192969 
" style="fill: none; stroke: #e69f00; stroke-width: 1.15; stroke-linecap: square"/>
    </g>
    <g id="text_21">
     <text style="font-size: 7px; font-family: 'DejaVu Sans', 'Bitstream Vera Sans', 'Computer Modern Sans Serif', 'Lucida Grande', 'Verdana', 'Geneva', 'Lucid', 'Arial', 'Helvetica', 'Avant Garde', sans-serif; text-anchor: start" x="126.244844" y="49.642969" transform="rotate(-0 126.244844 49.642969)">Crossed logistic</text>
    </g>
    <g id="line2d_38">
     <path d="M 106.644844 57.467656 
L 113.644844 57.467656 
L 120.644844 57.467656 
" style="fill: none; stroke: #8b5cf6; stroke-width: 1.15; stroke-linecap: square"/>
    </g>
    <g id="text_22">
     <text style="font-size: 7px; font-family: 'DejaVu Sans', 'Bitstream Vera Sans', 'Computer Modern Sans Serif', 'Lucida Grande', 'Verdana', 'Geneva', 'Lucid', 'Arial', 'Helvetica', 'Avant Garde', sans-serif; text-anchor: start" x="126.244844" y="59.917656" transform="rotate(-0 126.244844 59.917656)">Cache-500</text>
    </g>
    <g id="line2d_39">
     <path d="M 195.907969 16.368906 
L 202.907969 16.368906 
L 209.907969 16.368906 
" style="fill: none; stroke: #0072b2; stroke-width: 1.15; stroke-linecap: square"/>
    </g>
    <g id="text_23">
     <text style="font-size: 7px; font-family: 'DejaVu Sans', 'Bitstream Vera Sans', 'Computer Modern Sans Serif', 'Lucida Grande', 'Verdana', 'Geneva', 'Lucid', 'Arial', 'Helvetica', 'Avant Garde', sans-serif; text-anchor: start" x="215.507969" y="18.818906" transform="rotate(-0 215.507969 18.818906)">DGM-HQS</text>
    </g>
    <g id="line2d_40">
     <path d="M 195.907969 26.643594 
L 202.907969 26.643594 
L 209.907969 26.643594 
" style="fill: none; stroke: #009e73; stroke-width: 1.15; stroke-linecap: square"/>
    </g>
    <g id="text_24">
     <text style="font-size: 7px; font-family: 'DejaVu Sans', 'Bitstream Vera Sans', 'Computer Modern Sans Serif', 'Lucida Grande', 'Verdana', 'Geneva', 'Lucid', 'Arial', 'Helvetica', 'Avant Garde', sans-serif; text-anchor: start" x="215.507969" y="29.093594" transform="rotate(-0 215.507969 29.093594)">Oracle refined</text>
    </g>
    <g id="line2d_41">
     <path d="M 195.907969 36.919375 
L 202.907969 36.919375 
L 209.907969 36.919375 
" style="fill: none; stroke-dasharray: 0.7,1.155; stroke-dashoffset: 0; stroke: #111111; stroke-width: 0.7"/>
    </g>
    <g id="text_25">
     <!-- $\log 2$ -->
     <g transform="translate(215.507969 39.369375)">
      <text>
       <tspan x="0" y="-0.6875" style="font-size: 7px; font-family: 'DejaVu Sans'">l</tspan>
       <tspan x="1.944824" y="-0.6875" style="font-size: 7px; font-family: 'DejaVu Sans'">o</tspan>
       <tspan x="6.227539" y="-0.6875" style="font-size: 7px; font-family: 'DejaVu Sans'">g</tspan>
       <tspan x="11.807396" y="-0.6875" style="font-size: 7px; font-family: 'DejaVu Sans'">2</tspan>
      </text>
     </g>
    </g>
    <g id="line2d_42">
     <path d="M 195.907969 47.209375 
L 202.907969 47.209375 
L 209.907969 47.209375 
" style="fill: none; stroke-dasharray: 2.59,1.12; stroke-dashoffset: 0; stroke: #374151; stroke-width: 0.7"/>
    </g>
    <g id="text_26">
     <!-- $H(\eta)$ -->
     <g transform="translate(215.507969 49.659375)">
      <text>
       <tspan x="0" y="-0.6875" style="font-style: oblique; font-size: 7px; font-family: 'DejaVu Sans'">H</tspan>
       <tspan x="7.994629" y="-0.6875" style="font-style: oblique; font-size: 7px; font-family: 'DejaVu Sans'">η</tspan>
       <tspan x="5.263672" y="-0.6875" style="font-size: 7px; font-family: 'DejaVu Sans'">(</tspan>
       <tspan x="12.431152" y="-0.6875" style="font-size: 7px; font-family: 'DejaVu Sans'">)</tspan>
      </text>
     </g>
    </g>
   </g>
  </g>
 </g>
 <defs>
  <clipPath id="p2a36074cf2">
   <rect x="37.074688" y="7.2" width="234.36" height="155.232"/>
  </clipPath>
 </defs>
</svg>
